<?xml version="1.0" standalone="no"?>
<svg width="800px" height="600px" viewBox="0 0 800 600" version="1.1" xmlns="http://www.w3.org/2000/svg">

 <path d=" M 20.91 210.42 L 20.91 61.81 L 29.72 61.49 L 39.52 61.16 L 49.97 60.18 L 61.08 58.87 L 61.08 75.53 L 64.02 71.61 L 67.28 68.34 L 70.55 65.41 L 73.82 63.12 L 77.41 61.16 L 81.00 59.85 L 84.92 58.87 L 88.84 58.87 L 93.08 58.87 L 97.00 59.85 L 100.92 60.83 L 104.52 62.79 L 107.78 65.08 L 111.05 67.69 L 113.66 70.96 L 116.60 74.55 L 118.89 78.80 L 121.17 83.04 L 122.81 87.94 L 124.44 93.17 L 125.42 98.72 L 126.40 104.27 L 126.72 110.48 L 127.05 117.01 L 126.72 124.19 L 126.40 130.73 L 125.42 136.93 L 124.44 142.81 L 123.13 148.04 L 121.50 152.93 L 119.54 157.18 L 117.25 161.10 L 114.64 164.69 L 111.70 167.63 L 108.43 170.24 L 104.84 172.20 L 100.92 173.84 L 97.00 174.82 L 92.43 175.47 L 87.86 175.80 L 83.61 175.80 L 80.02 175.14 L 76.43 174.16 L 73.16 172.86 L 69.90 171.22 L 66.63 168.94 L 64.02 166.65 L 61.08 163.71 L 61.08 210.42 z M 74.14 74.88 L 72.51 75.20 L 70.88 75.53 L 69.57 76.51 L 68.26 77.49 L 66.96 79.12 L 65.98 80.76 L 65.00 83.04 L 64.02 85.33 L 63.36 87.94 L 62.71 91.21 L 62.06 94.47 L 61.73 98.39 L 61.40 102.31 L 61.08 106.88 L 60.75 111.46 L 60.75 116.35 L 60.75 121.58 L 61.08 126.48 L 61.08 131.05 L 61.73 135.30 L 62.06 139.22 L 62.71 142.81 L 63.36 146.08 L 64.02 148.69 L 64.67 151.30 L 65.65 153.59 L 66.96 155.55 L 67.94 156.85 L 69.24 158.16 L 70.55 158.81 L 72.18 159.47 L 73.49 159.47 L 75.12 159.47 L 76.43 158.81 L 77.41 158.16 L 78.71 156.85 L 79.69 155.55 L 80.67 153.59 L 81.33 151.30 L 82.31 148.69 L 82.96 146.08 L 83.29 142.81 L 83.94 139.22 L 84.27 135.30 L 84.59 131.05 L 84.92 126.48 L 84.92 121.58 L 84.92 116.35 L 84.92 111.46 L 84.92 106.88 L 84.59 102.31 L 84.27 98.39 L 83.94 94.47 L 83.61 91.21 L 82.96 87.94 L 82.31 85.33 L 81.65 83.04 L 80.67 80.76 L 80.02 79.12 L 79.04 77.49 L 77.73 76.51 L 76.75 75.53 L 75.45 75.20 L 74.14 74.88 z M 194.33 58.87 L 200.86 58.87 L 207.07 59.53 L 212.95 60.83 L 218.17 62.47 L 223.40 64.43 L 227.64 67.04 L 231.89 69.98 L 235.48 73.24 L 238.75 77.16 L 241.69 81.41 L 243.97 86.31 L 245.93 91.53 L 247.57 97.09 L 248.55 103.29 L 249.20 109.82 L 249.53 117.01 L 249.20 124.19 L 248.55 130.73 L 247.57 136.93 L 245.93 142.48 L 243.97 147.71 L 241.69 152.61 L 238.75 156.85 L 235.48 160.77 L 231.89 164.04 L 227.64 166.98 L 223.40 169.59 L 218.17 171.55 L 212.95 173.18 L 207.07 174.49 L 200.86 175.14 L 194.33 175.14 L 187.47 175.14 L 181.27 174.49 L 175.39 173.18 L 169.84 171.55 L 164.94 169.59 L 160.36 166.98 L 156.45 164.04 L 152.85 160.77 L 149.59 156.85 L 146.65 152.61 L 144.36 147.71 L 142.40 142.48 L 140.77 136.93 L 139.79 130.73 L 139.14 124.19 L 138.81 117.01 L 139.14 109.82 L 139.79 103.29 L 140.77 97.09 L 142.40 91.53 L 144.36 86.31 L 146.65 81.41 L 149.59 77.16 L 152.85 73.24 L 156.45 69.98 L 160.36 67.04 L 164.94 64.43 L 169.84 62.47 L 175.39 60.83 L 181.27 59.53 L 187.47 58.87 L 194.33 58.87 z M 194.00 68.67 L 192.37 68.67 L 191.06 69.32 L 189.43 70.30 L 188.13 71.61 L 187.15 73.24 L 185.84 75.53 L 184.86 77.82 L 184.21 80.76 L 183.23 84.02 L 182.57 87.61 L 181.92 91.53 L 181.59 95.78 L 181.27 100.68 L 180.94 105.58 L 180.61 111.13 L 180.61 117.01 L 180.61 122.89 L 180.94 128.44 L 181.27 133.34 L 181.59 138.24 L 181.92 142.48 L 182.57 146.40 L 183.23 149.99 L 184.21 153.26 L 184.86 156.20 L 185.84 158.81 L 187.15 160.77 L 188.13 162.41 L 189.43 163.71 L 191.06 164.69 L 192.37 165.35 L 194.00 165.35 L 195.64 165.35 L 197.27 164.69 L 198.58 163.71 L 199.88 162.41 L 201.19 160.77 L 202.17 158.81 L 203.15 156.20 L 204.13 153.26 L 205.11 149.99 L 205.76 146.40 L 206.09 142.48 L 206.74 138.24 L 207.07 133.34 L 207.39 128.44 L 207.39 122.89 L 207.39 117.01 L 207.39 111.13 L 207.39 105.58 L 207.07 100.68 L 206.74 95.78 L 206.09 91.53 L 205.76 87.61 L 205.11 84.02 L 204.13 80.76 L 203.15 77.82 L 202.17 75.53 L 201.19 73.24 L 199.88 71.61 L 198.58 70.30 L 197.27 69.32 L 195.64 68.67 L 194.00 68.67 z M 306.68 20.01 L 306.68 172.86 L 266.51 172.86 L 266.51 22.29 L 275.33 21.97 L 284.80 21.64 L 295.58 20.99 L 306.68 20.01 z M 422.95 61.49 L 372.00 187.23 L 369.39 193.11 L 366.45 198.66 L 363.18 202.90 L 359.92 206.50 L 356.00 209.44 L 352.41 211.40 L 348.16 212.70 L 343.91 213.03 L 339.67 212.70 L 335.75 212.05 L 332.48 211.07 L 329.22 209.44 L 326.60 207.15 L 324.32 204.86 L 322.03 201.92 L 320.40 198.33 L 334.44 188.21 L 334.77 191.15 L 335.42 193.76 L 336.40 196.05 L 337.38 197.68 L 338.69 199.31 L 340.32 200.29 L 341.95 200.94 L 343.59 200.94 L 345.87 200.62 L 347.83 199.96 L 349.79 198.98 L 351.75 197.35 L 353.39 195.39 L 355.02 192.78 L 356.32 189.84 L 357.96 186.25 L 360.90 178.41 L 316.15 61.49 L 360.24 61.49 L 382.78 127.13 L 408.25 61.49 z M 503.95 62.79 L 510.48 66.06 L 516.36 69.32 L 521.26 73.24 L 525.18 77.49 L 528.12 82.06 L 530.40 86.96 L 531.71 92.19 L 532.04 97.74 L 532.04 101.33 L 531.38 104.92 L 530.08 108.52 L 528.77 111.78 L 526.48 114.72 L 524.20 117.99 L 521.26 120.93 L 517.99 123.54 L 514.40 126.15 L 510.48 128.11 L 506.56 130.07 L 502.32 131.71 L 498.07 132.69 L 493.50 133.66 L 488.92 133.99 L 484.03 134.32 L 479.78 133.99 L 474.88 133.66 L 469.33 133.01 L 463.12 132.36 L 459.86 134.32 L 457.24 136.60 L 455.94 138.89 L 455.28 141.18 L 455.61 142.48 L 455.94 143.79 L 456.59 144.77 L 457.90 145.75 L 459.20 146.40 L 460.84 146.73 L 462.47 147.06 L 464.76 147.06 L 466.39 147.06 L 468.35 147.06 L 471.29 147.06 L 474.55 146.73 L 479.13 146.40 L 483.37 146.08 L 487.29 146.08 L 490.88 145.75 L 493.82 145.75 L 496.76 145.42 L 499.38 145.42 L 501.66 145.42 L 506.56 145.75 L 511.13 146.08 L 515.38 146.40 L 519.30 147.38 L 522.89 148.36 L 526.16 149.67 L 529.10 151.30 L 532.04 153.26 L 534.32 155.22 L 536.28 157.51 L 537.91 159.79 L 539.55 162.73 L 540.53 165.67 L 541.18 168.94 L 541.83 172.20 L 541.83 175.80 L 541.83 180.37 L 540.85 184.61 L 539.55 188.53 L 537.91 192.13 L 535.30 195.39 L 532.69 198.33 L 529.10 201.27 L 525.18 203.56 L 520.93 205.84 L 516.03 207.48 L 510.48 209.11 L 504.60 210.42 L 498.07 211.40 L 490.88 212.38 L 483.37 212.70 L 475.53 212.70 L 469.33 212.70 L 463.78 212.38 L 458.55 212.05 L 453.65 211.40 L 449.41 210.74 L 445.16 209.76 L 441.57 208.78 L 438.30 207.48 L 435.36 206.17 L 432.75 204.54 L 430.79 202.90 L 428.83 200.94 L 427.52 198.98 L 426.54 196.70 L 425.89 194.41 L 425.89 191.80 L 426.22 189.19 L 427.20 186.57 L 428.83 183.96 L 430.79 182.00 L 433.73 180.04 L 437.00 178.41 L 441.24 176.78 L 445.81 175.47 L 440.91 174.16 L 436.67 172.20 L 432.75 170.24 L 429.81 168.28 L 427.52 165.67 L 425.89 163.06 L 424.91 160.12 L 424.58 156.85 L 424.91 152.93 L 426.22 149.02 L 428.18 145.42 L 430.79 141.83 L 434.38 138.24 L 438.95 134.64 L 444.18 131.38 L 450.06 128.44 L 444.83 125.83 L 440.26 123.21 L 436.34 119.95 L 433.08 116.03 L 430.79 112.11 L 429.16 107.54 L 427.85 102.96 L 427.52 97.74 L 427.85 93.49 L 428.50 89.57 L 429.48 85.98 L 431.12 82.39 L 433.08 79.12 L 435.36 75.86 L 437.98 72.59 L 441.24 69.98 L 444.83 67.36 L 448.43 65.08 L 452.35 63.12 L 456.26 61.49 L 460.84 60.18 L 465.08 59.20 L 469.98 58.87 L 474.88 58.55 L 478.47 58.87 L 482.72 58.87 L 487.62 59.53 L 492.84 60.18 L 492.52 56.59 L 492.19 53.97 L 492.52 51.36 L 492.52 48.75 L 493.17 46.46 L 493.82 44.50 L 494.48 42.54 L 495.46 40.58 L 496.76 38.95 L 498.07 37.64 L 499.38 36.34 L 501.34 35.36 L 502.97 34.38 L 505.25 33.40 L 507.21 33.07 L 509.83 32.42 L 512.44 32.09 L 515.05 32.09 L 519.30 32.42 L 523.22 33.07 L 526.16 34.38 L 528.77 36.01 L 530.73 38.30 L 532.36 40.91 L 533.02 43.85 L 533.34 47.44 L 533.02 50.38 L 532.69 52.67 L 531.71 54.63 L 530.73 56.26 L 529.10 57.57 L 527.14 58.55 L 524.85 58.87 L 522.56 59.20 L 520.61 59.20 L 518.32 58.55 L 516.36 57.89 L 513.75 56.91 L 512.44 55.93 L 511.13 55.61 L 510.15 55.28 L 509.17 55.28 L 507.87 55.28 L 506.89 55.61 L 505.91 55.93 L 505.25 56.91 L 504.60 57.89 L 504.28 59.20 L 503.95 60.83 L 503.95 62.79 z M 479.13 69.65 L 476.51 69.98 L 474.23 71.28 L 472.27 73.57 L 470.64 76.51 L 469.33 80.43 L 468.68 85.33 L 468.02 90.88 L 468.02 97.74 L 468.02 103.62 L 468.68 108.84 L 469.66 113.42 L 470.96 117.01 L 472.59 119.62 L 474.55 121.58 L 476.84 122.89 L 479.45 123.21 L 482.07 122.89 L 484.35 121.91 L 485.99 119.95 L 487.62 117.66 L 488.92 114.40 L 489.58 110.48 L 490.23 105.90 L 490.23 100.35 L 490.23 96.76 L 490.23 93.17 L 489.90 89.90 L 489.58 86.96 L 489.25 84.02 L 488.60 81.74 L 488.27 79.45 L 487.62 77.16 L 486.64 75.53 L 485.99 73.90 L 485.01 72.59 L 484.03 71.61 L 483.05 70.63 L 481.74 69.98 L 480.43 69.65 L 479.13 69.65 z M 478.15 180.04 L 471.61 180.37 L 465.74 180.70 L 460.84 181.68 L 456.92 182.98 L 453.98 184.29 L 451.69 186.25 L 450.39 188.53 L 450.06 191.15 L 450.39 193.76 L 451.69 195.72 L 453.65 197.68 L 456.59 199.31 L 460.51 200.29 L 465.08 201.27 L 470.64 201.60 L 477.17 201.92 L 481.09 201.92 L 484.68 201.60 L 487.94 201.60 L 490.88 201.27 L 493.82 200.62 L 496.44 200.29 L 498.72 199.64 L 501.01 198.98 L 502.64 198.01 L 504.28 197.03 L 505.91 196.05 L 506.89 195.07 L 507.87 193.76 L 508.19 192.45 L 508.85 191.15 L 508.85 189.84 L 508.52 187.55 L 506.89 185.59 L 504.60 183.96 L 501.01 182.65 L 496.76 181.35 L 491.54 180.70 L 485.33 180.37 L 478.15 180.04 z M 603.24 58.87 L 609.77 58.87 L 615.97 59.53 L 621.85 60.83 L 627.08 62.47 L 632.30 64.43 L 636.55 67.04 L 640.79 69.98 L 644.39 73.24 L 647.65 77.16 L 650.59 81.41 L 652.88 86.31 L 654.84 91.53 L 656.47 97.09 L 657.45 103.29 L 658.10 109.82 L 658.43 117.01 L 658.10 124.19 L 657.45 130.73 L 656.47 136.93 L 654.84 142.48 L 652.88 147.71 L 650.59 152.61 L 647.65 156.85 L 644.39 160.77 L 640.79 164.04 L 636.55 166.98 L 632.30 169.59 L 627.08 171.55 L 621.85 173.18 L 615.97 174.49 L 609.77 175.14 L 603.24 175.14 L 596.38 175.14 L 590.17 174.49 L 584.29 173.18 L 578.74 171.55 L 573.84 169.59 L 569.27 166.98 L 565.35 164.04 L 561.76 160.77 L 558.49 156.85 L 555.55 152.61 L 553.27 147.71 L 551.31 142.48 L 549.67 136.93 L 548.69 130.73 L 548.04 124.19 L 547.71 117.01 L 548.04 109.82 L 548.69 103.29 L 549.67 97.09 L 551.31 91.53 L 553.27 86.31 L 555.55 81.41 L 558.49 77.16 L 561.76 73.24 L 565.35 69.98 L 569.27 67.04 L 573.84 64.43 L 578.74 62.47 L 584.29 60.83 L 590.17 59.53 L 596.38 58.87 L 603.24 58.87 z M 602.91 68.67 L 601.28 68.67 L 599.97 69.32 L 598.34 70.30 L 597.03 71.61 L 596.05 73.24 L 594.74 75.53 L 593.76 77.82 L 593.11 80.76 L 592.13 84.02 L 591.48 87.61 L 590.82 91.53 L 590.50 95.78 L 590.17 100.68 L 589.84 105.58 L 589.52 111.13 L 589.52 117.01 L 589.52 122.89 L 589.84 128.44 L 590.17 133.34 L 590.50 138.24 L 590.82 142.48 L 591.48 146.40 L 592.13 149.99 L 593.11 153.26 L 593.76 156.20 L 594.74 158.81 L 596.05 160.77 L 597.03 162.41 L 598.34 163.71 L 599.97 164.69 L 601.28 165.35 L 602.91 165.35 L 604.54 165.35 L 606.17 164.69 L 607.48 163.71 L 608.79 162.41 L 610.09 160.77 L 611.07 158.81 L 612.05 156.20 L 613.03 153.26 L 614.01 149.99 L 614.67 146.40 L 614.99 142.48 L 615.65 138.24 L 615.97 133.34 L 616.30 128.44 L 616.30 122.89 L 616.30 117.01 L 616.30 111.13 L 616.30 105.58 L 615.97 100.68 L 615.65 95.78 L 614.99 91.53 L 614.67 87.61 L 614.01 84.02 L 613.03 80.76 L 612.05 77.82 L 611.07 75.53 L 610.09 73.24 L 608.79 71.61 L 607.48 70.30 L 606.17 69.32 L 604.54 68.67 L 602.91 68.67 z M 780.91 172.86 L 740.73 172.86 L 740.73 91.21 L 740.41 88.27 L 740.08 85.65 L 739.75 83.69 L 738.77 81.74 L 737.79 80.43 L 736.81 79.45 L 735.18 78.80 L 733.88 78.80 L 731.92 78.80 L 730.28 79.45 L 728.65 80.10 L 727.02 81.08 L 725.71 82.72 L 724.08 84.35 L 722.77 86.31 L 721.46 88.59 L 719.18 93.82 L 717.55 99.37 L 716.57 105.58 L 716.24 112.11 L 716.24 172.86 L 676.07 172.86 L 676.07 61.49 L 686.19 61.16 L 696.32 60.83 L 706.44 59.85 L 716.24 58.55 L 716.24 79.45 L 720.16 74.55 L 724.08 70.30 L 728.32 66.71 L 732.90 64.10 L 737.47 61.81 L 742.37 60.18 L 747.59 59.20 L 752.82 58.87 L 756.41 58.87 L 759.35 59.20 L 762.29 59.85 L 765.23 60.51 L 767.84 61.49 L 770.13 62.79 L 772.09 64.10 L 774.05 65.73 L 775.68 67.69 L 776.99 69.98 L 778.29 72.26 L 779.27 74.88 L 779.93 77.49 L 780.58 80.43 L 780.91 83.69 L 780.91 87.29 z"
 style="fill:#00009C; fill-opacity:0.09; fill-rule:nonzero; stroke:#B3B3DA; stroke-opacity:0.67; stroke-width:0.80;"/>

 <path d=" M 137.50 183.63 L 151.55 188.21 L 151.55 191.80 L 151.55 196.05 L 151.22 200.29 L 150.24 203.88 L 149.26 207.15 L 147.95 210.42 L 146.32 213.36 L 144.36 215.97 L 142.07 218.25 L 139.46 220.54 L 136.52 222.17 L 133.58 223.81 L 129.99 224.79 L 126.07 225.77 L 122.15 226.75 L 117.91 227.07 L 113.01 227.07 L 107.46 227.07 L 102.23 226.42 L 97.66 225.44 L 93.08 224.13 L 88.84 222.50 L 85.25 220.54 L 81.98 218.25 L 78.71 215.64 L 76.10 212.38 L 73.82 209.11 L 71.86 205.19 L 70.22 200.94 L 68.92 196.37 L 67.94 191.47 L 67.61 186.25 L 67.28 180.70 L 67.61 175.14 L 68.26 169.59 L 69.24 164.69 L 70.55 159.79 L 72.51 155.22 L 74.80 151.30 L 77.41 147.38 L 80.67 143.79 L 84.27 140.52 L 87.86 137.58 L 91.78 135.30 L 96.35 133.34 L 100.92 131.71 L 105.82 130.73 L 111.05 130.07 L 116.27 129.75 L 120.19 130.07 L 124.11 130.40 L 127.38 130.73 L 130.64 131.71 L 133.26 132.69 L 136.20 133.99 L 138.48 135.30 L 140.44 137.26 L 142.40 139.22 L 144.03 141.18 L 145.34 143.79 L 146.65 146.40 L 147.63 149.02 L 148.28 152.28 L 148.61 155.55 L 148.61 159.14 L 132.93 166.65 L 133.26 157.83 L 132.93 153.26 L 132.28 149.34 L 131.30 145.75 L 129.66 143.14 L 128.03 140.85 L 125.74 139.22 L 122.81 138.24 L 119.87 137.91 L 117.58 138.24 L 115.62 138.56 L 113.66 139.54 L 112.03 140.52 L 110.39 141.83 L 109.09 143.46 L 107.78 145.42 L 106.48 147.71 L 105.50 150.32 L 104.52 153.26 L 103.86 156.53 L 103.21 159.79 L 102.88 163.71 L 102.56 167.96 L 102.23 172.20 L 102.23 177.10 L 102.23 182.65 L 102.56 188.21 L 102.56 192.78 L 103.21 197.35 L 103.54 201.27 L 104.19 204.54 L 105.17 207.48 L 105.82 210.09 L 107.13 212.05 L 108.11 214.01 L 109.74 215.31 L 111.37 216.62 L 113.01 217.60 L 115.29 218.25 L 117.58 218.91 L 119.87 218.91 L 122.15 218.91 L 124.11 218.58 L 126.07 218.25 L 128.03 217.60 L 129.66 216.62 L 131.30 215.64 L 132.60 214.34 L 133.91 213.03 L 134.89 211.40 L 135.87 209.44 L 136.85 207.48 L 137.50 205.52 L 137.83 202.90 L 138.16 200.62 L 138.48 197.68 L 138.48 194.74 L 138.48 192.78 L 138.16 190.49 L 137.83 187.23 L 137.50 183.63 z M 196.29 97.74 L 196.29 225.11 L 162.98 225.11 L 162.98 99.70 L 170.16 99.70 L 178.00 99.37 L 186.82 98.72 L 196.29 97.74 z M 232.87 96.76 L 236.46 96.76 L 239.40 97.41 L 242.34 98.39 L 244.30 99.70 L 246.26 101.33 L 247.24 103.29 L 248.22 105.90 L 248.22 108.84 L 248.22 111.46 L 247.24 114.07 L 246.26 116.03 L 244.30 117.66 L 242.34 119.29 L 239.40 119.95 L 236.46 120.60 L 232.87 120.93 L 228.95 120.60 L 226.01 119.95 L 223.07 119.29 L 221.11 117.66 L 219.15 116.03 L 218.17 114.07 L 217.19 111.46 L 217.19 108.84 L 217.19 105.90 L 218.17 103.29 L 219.15 101.33 L 221.11 99.70 L 223.07 98.39 L 226.01 97.41 L 228.95 96.76 L 232.87 96.76 z M 215.89 225.11 L 215.89 132.69 L 223.72 132.36 L 231.89 132.03 L 240.38 131.05 L 249.20 130.07 L 249.20 225.11 z M 268.80 256.47 L 268.80 132.69 L 275.98 132.36 L 284.15 132.03 L 292.96 131.38 L 302.11 130.07 L 302.11 144.12 L 304.72 140.85 L 307.01 137.91 L 309.95 135.62 L 312.56 133.66 L 315.50 132.03 L 318.77 131.05 L 321.71 130.40 L 325.30 130.07 L 328.56 130.40 L 332.16 131.05 L 335.10 132.03 L 338.04 133.34 L 340.97 135.30 L 343.59 137.58 L 345.87 140.20 L 348.16 143.46 L 350.12 146.73 L 352.08 150.32 L 353.39 154.57 L 354.69 158.81 L 355.67 163.39 L 356.32 167.96 L 356.65 173.18 L 356.98 178.74 L 356.65 184.61 L 356.32 190.17 L 355.67 195.39 L 354.69 199.96 L 353.71 204.54 L 352.41 208.46 L 350.45 212.05 L 348.81 215.31 L 346.53 218.25 L 344.24 220.54 L 341.30 222.83 L 338.36 224.46 L 335.42 225.77 L 331.83 226.75 L 328.24 227.40 L 324.32 227.73 L 321.05 227.40 L 317.79 227.07 L 314.85 226.09 L 311.91 225.11 L 309.29 223.48 L 306.68 221.85 L 304.40 219.89 L 302.11 217.60 L 302.11 256.47 z M 312.89 143.79 L 311.58 143.79 L 310.27 144.12 L 309.29 144.77 L 307.99 145.75 L 307.01 147.06 L 306.03 148.36 L 305.38 150.32 L 304.72 152.28 L 304.07 154.57 L 303.42 157.18 L 302.76 159.79 L 302.44 163.06 L 302.11 166.32 L 302.11 169.92 L 301.78 173.84 L 301.78 178.08 L 301.78 182.65 L 302.11 186.57 L 302.11 190.49 L 302.44 193.76 L 302.76 197.03 L 303.42 199.96 L 303.74 202.58 L 304.40 205.19 L 305.05 207.15 L 306.03 209.11 L 307.01 210.74 L 307.66 211.72 L 308.97 212.70 L 309.95 213.68 L 311.25 214.01 L 312.56 214.01 L 313.54 214.01 L 314.85 213.68 L 315.83 212.70 L 316.81 211.72 L 317.46 210.74 L 318.44 209.11 L 319.09 207.15 L 319.75 205.19 L 320.07 202.58 L 320.73 199.96 L 321.05 197.03 L 321.38 193.76 L 321.71 190.49 L 322.03 186.57 L 322.03 182.65 L 322.03 178.08 L 322.03 173.84 L 322.03 169.92 L 321.71 166.32 L 321.38 163.06 L 321.05 159.79 L 320.73 157.18 L 320.40 154.57 L 319.75 152.28 L 319.09 150.32 L 318.44 148.36 L 317.79 147.06 L 316.81 145.75 L 316.15 144.77 L 315.17 144.12 L 314.19 143.79 L 312.89 143.79 z M 370.70 256.47 L 370.70 132.69 L 377.88 132.36 L 386.05 132.03 L 394.86 131.38 L 404.01 130.07 L 404.01 144.12 L 406.62 140.85 L 408.91 137.91 L 411.85 135.62 L 414.46 133.66 L 417.40 132.03 L 420.67 131.05 L 423.60 130.40 L 427.20 130.07 L 430.46 130.40 L 434.06 131.05 L 437.00 132.03 L 439.93 133.34 L 442.87 135.30 L 445.49 137.58 L 447.77 140.20 L 450.06 143.46 L 452.02 146.73 L 453.98 150.32 L 455.28 154.57 L 456.59 158.81 L 457.57 163.39 L 458.22 167.96 L 458.55 173.18 L 458.88 178.74 L 458.55 184.61 L 458.22 190.17 L 457.57 195.39 L 456.59 199.96 L 455.61 204.54 L 454.31 208.46 L 452.35 212.05 L 450.71 215.31 L 448.43 218.25 L 446.14 220.54 L 443.20 222.83 L 440.26 224.46 L 437.32 225.77 L 433.73 226.75 L 430.14 227.40 L 426.22 227.73 L 422.95 227.40 L 419.69 227.07 L 416.75 226.09 L 413.81 225.11 L 411.19 223.48 L 408.58 221.85 L 406.29 219.89 L 404.01 217.60 L 404.01 256.47 z M 414.79 143.79 L 413.48 143.79 L 412.17 144.12 L 411.19 144.77 L 409.89 145.75 L 408.91 147.06 L 407.93 148.36 L 407.27 150.32 L 406.62 152.28 L 405.97 154.57 L 405.31 157.18 L 404.66 159.79 L 404.34 163.06 L 404.01 166.32 L 404.01 169.92 L 403.68 173.84 L 403.68 178.08 L 403.68 182.65 L 404.01 186.57 L 404.01 190.49 L 404.34 193.76 L 404.66 197.03 L 405.31 199.96 L 405.64 202.58 L 406.29 205.19 L 406.95 207.15 L 407.93 209.11 L 408.91 210.74 L 409.56 211.72 L 410.87 212.70 L 411.85 213.68 L 413.15 214.01 L 414.46 214.01 L 415.44 214.01 L 416.75 213.68 L 417.73 212.70 L 418.71 211.72 L 419.36 210.74 L 420.34 209.11 L 420.99 207.15 L 421.65 205.19 L 421.97 202.58 L 422.62 199.96 L 422.95 197.03 L 423.28 193.76 L 423.60 190.49 L 423.93 186.57 L 423.93 182.65 L 423.93 178.08 L 423.93 173.84 L 423.93 169.92 L 423.60 166.32 L 423.28 163.06 L 422.95 159.79 L 422.62 157.18 L 422.30 154.57 L 421.65 152.28 L 420.99 150.32 L 420.34 148.36 L 419.69 147.06 L 418.71 145.75 L 418.05 144.77 L 417.07 144.12 L 416.09 143.79 L 414.79 143.79 z M 490.23 96.76 L 493.82 96.76 L 496.76 97.41 L 499.70 98.39 L 501.66 99.70 L 503.62 101.33 L 504.60 103.29 L 505.58 105.90 L 505.58 108.84 L 505.58 111.46 L 504.60 114.07 L 503.62 116.03 L 501.66 117.66 L 499.70 119.29 L 496.76 119.95 L 493.82 120.60 L 490.23 120.93 L 486.31 120.60 L 483.37 119.95 L 480.43 119.29 L 478.47 117.66 L 476.51 116.03 L 475.53 114.07 L 474.55 111.46 L 474.55 108.84 L 474.55 105.90 L 475.53 103.29 L 476.51 101.33 L 478.47 99.70 L 480.43 98.39 L 483.37 97.41 L 486.31 96.76 L 490.23 96.76 z M 473.25 225.11 L 473.25 132.69 L 481.09 132.36 L 489.25 132.03 L 497.74 131.05 L 506.56 130.07 L 506.56 225.11 z M 613.69 225.11 L 580.37 225.11 L 580.37 157.18 L 580.37 154.57 L 580.05 152.61 L 579.39 150.65 L 578.74 149.34 L 578.09 148.36 L 577.11 147.38 L 575.80 147.06 L 574.49 146.73 L 571.55 147.38 L 568.94 148.69 L 566.66 151.30 L 564.37 154.89 L 562.41 159.14 L 561.10 164.04 L 560.12 168.94 L 560.12 174.49 L 560.12 225.11 L 526.48 225.11 L 526.48 132.36 L 534.98 132.03 L 543.47 131.71 L 551.96 131.05 L 560.12 130.07 L 560.12 147.38 L 563.06 143.46 L 566.66 139.87 L 570.25 136.93 L 573.84 134.32 L 577.76 132.69 L 581.68 131.05 L 585.93 130.40 L 590.50 130.07 L 593.44 130.07 L 596.05 130.40 L 598.34 131.05 L 600.62 131.71 L 602.91 132.36 L 604.87 133.34 L 606.50 134.64 L 608.13 135.95 L 609.44 137.58 L 610.42 139.54 L 611.40 141.18 L 612.38 143.46 L 613.03 145.75 L 613.36 148.36 L 613.69 150.97 L 613.69 153.91 z M 693.70 133.34 L 699.26 135.95 L 704.15 138.89 L 708.07 142.16 L 711.34 145.75 L 713.95 149.34 L 715.59 153.59 L 716.89 157.83 L 717.22 162.41 L 716.89 165.67 L 716.57 168.61 L 715.59 171.55 L 714.28 174.16 L 712.65 176.78 L 710.69 179.39 L 708.07 181.68 L 705.46 183.96 L 702.52 186.25 L 699.26 187.88 L 695.99 189.51 L 692.40 190.82 L 688.80 191.80 L 685.21 192.45 L 681.29 192.78 L 677.05 193.11 L 673.45 192.78 L 669.54 192.45 L 664.96 192.13 L 659.74 191.47 L 656.80 193.11 L 654.84 195.07 L 653.86 196.70 L 653.20 198.66 L 653.53 199.96 L 653.86 200.94 L 654.51 201.60 L 655.16 202.58 L 656.47 202.90 L 657.78 203.23 L 659.41 203.56 L 661.04 203.56 L 662.35 203.56 L 664.31 203.56 L 666.60 203.56 L 669.21 203.23 L 676.72 202.90 L 682.60 202.58 L 687.82 202.25 L 692.07 202.25 L 695.99 202.58 L 699.91 202.58 L 703.17 203.23 L 706.44 203.88 L 709.71 204.86 L 712.32 205.84 L 714.93 207.15 L 716.89 208.78 L 718.85 210.42 L 720.81 212.38 L 722.12 214.34 L 723.42 216.62 L 724.08 218.91 L 724.73 221.85 L 725.38 224.46 L 725.38 227.73 L 725.06 231.32 L 724.40 234.91 L 723.42 238.18 L 721.79 241.12 L 719.83 243.73 L 717.55 246.34 L 714.61 248.63 L 711.67 250.59 L 707.75 252.55 L 703.83 254.18 L 699.26 255.49 L 694.36 256.47 L 688.80 257.45 L 682.93 257.77 L 676.72 258.10 L 669.86 258.43 L 664.96 258.43 L 660.39 258.10 L 655.82 257.77 L 651.90 257.12 L 648.31 256.79 L 644.71 255.81 L 641.77 255.16 L 639.16 254.18 L 636.55 252.87 L 634.59 251.57 L 632.63 250.26 L 631.32 248.63 L 630.34 247.00 L 629.36 245.04 L 629.04 243.08 L 628.71 241.12 L 629.04 238.50 L 629.69 236.54 L 631.00 234.26 L 632.96 232.62 L 635.24 230.99 L 638.18 229.69 L 641.45 228.38 L 645.37 227.40 L 641.12 226.09 L 637.53 224.79 L 634.59 223.15 L 631.98 221.19 L 630.02 219.23 L 628.71 216.95 L 628.06 214.66 L 627.73 212.05 L 628.06 208.46 L 629.04 205.19 L 630.67 202.25 L 632.96 199.31 L 635.90 196.37 L 639.49 193.43 L 643.73 190.82 L 648.96 188.21 L 644.39 185.92 L 640.79 183.63 L 637.53 181.02 L 634.92 177.76 L 632.96 174.49 L 631.32 170.90 L 630.34 166.98 L 630.34 162.41 L 630.34 159.14 L 631.00 155.87 L 631.65 152.61 L 632.96 149.67 L 634.59 147.06 L 636.55 144.44 L 638.83 141.83 L 641.45 139.22 L 644.39 137.26 L 647.33 135.30 L 650.59 133.66 L 654.18 132.36 L 657.78 131.38 L 661.37 130.73 L 665.29 130.07 L 669.54 130.07 L 672.47 130.07 L 676.07 130.40 L 679.99 130.73 L 684.56 131.38 L 684.23 128.44 L 683.91 126.15 L 684.23 121.91 L 685.21 118.31 L 686.84 115.05 L 688.80 112.44 L 691.42 110.48 L 694.68 109.17 L 698.60 108.19 L 703.17 107.86 L 706.44 108.19 L 709.71 108.84 L 712.32 109.82 L 714.28 111.13 L 715.91 113.09 L 717.22 115.05 L 717.87 117.66 L 718.20 120.93 L 718.20 122.89 L 717.55 125.17 L 716.89 126.81 L 715.91 128.11 L 714.61 129.09 L 712.97 129.75 L 711.34 130.40 L 709.05 130.40 L 707.42 130.40 L 705.79 130.07 L 703.83 129.42 L 701.87 128.44 L 699.58 127.46 L 697.95 127.13 L 696.97 127.13 L 696.32 127.46 L 695.34 127.79 L 695.01 128.44 L 694.36 129.42 L 694.03 130.73 L 693.70 132.03 L 693.70 133.34 z M 673.13 139.22 L 670.84 139.54 L 668.88 140.52 L 667.25 142.48 L 665.94 145.10 L 664.96 148.36 L 664.31 152.28 L 663.98 156.85 L 663.66 162.41 L 663.98 167.63 L 664.31 171.88 L 664.96 175.47 L 666.27 178.41 L 667.58 180.70 L 669.21 182.65 L 671.17 183.63 L 673.45 183.96 L 675.41 183.63 L 677.37 182.65 L 679.01 181.35 L 680.31 179.06 L 680.97 176.45 L 681.95 173.18 L 682.27 169.26 L 682.27 165.02 L 682.27 158.81 L 681.95 153.59 L 680.97 149.34 L 679.99 145.42 L 678.68 142.81 L 677.05 140.85 L 675.41 139.54 L 673.13 139.22 z M 672.15 231.32 L 666.60 231.32 L 662.02 231.65 L 657.78 232.30 L 654.51 233.60 L 651.90 234.58 L 650.27 236.22 L 648.96 238.18 L 648.63 240.14 L 648.96 242.42 L 650.27 244.06 L 651.90 245.69 L 654.51 247.00 L 657.78 247.98 L 661.37 248.63 L 666.27 249.28 L 671.49 249.28 L 677.70 248.95 L 682.93 248.63 L 687.50 247.98 L 691.09 246.67 L 694.03 245.36 L 696.32 243.73 L 697.30 241.44 L 697.95 239.16 L 697.30 237.20 L 696.32 235.56 L 694.36 234.26 L 691.42 233.28 L 687.82 232.30 L 683.25 231.65 L 678.35 231.32 L 672.15 231.32 z"
 style="fill:#9C0000; fill-opacity:0.07; fill-rule:nonzero; stroke:#FFA07A; stroke-opacity:0.80; stroke-width:0.80;"/>

 <path d=" M 334.77 191.15 L 335.42 193.76 L 336.40 196.05 L 337.38 197.68 L 338.69 199.31 L 340.32 200.29 L 341.95 200.94 L 343.59 200.94 L 345.87 200.62 L 347.83 199.96 L 349.79 198.98 L 351.75 197.35 L 353.39 195.39 L 355.02 192.78 L 356.32 189.84 L 356.32 190.17 L 355.67 195.39 L 354.69 199.96 L 353.71 204.54 L 352.41 208.46 L 350.45 212.05 L 348.16 212.70 L 343.91 213.03 L 339.67 212.70 L 335.75 212.05 L 332.48 211.07 L 329.22 209.44 L 326.60 207.15 L 324.32 204.86 L 322.03 201.92 L 320.73 199.31 L 320.89 198.01 L 334.44 188.21 z M 506.56 209.93 L 504.60 210.42 L 498.07 211.40 L 490.88 212.38 L 483.37 212.70 L 475.53 212.70 L 473.25 212.70 L 473.25 201.76 L 477.17 201.92 L 481.09 201.92 L 484.68 201.60 L 487.94 201.60 L 490.88 201.27 L 493.82 200.62 L 496.44 200.29 L 498.72 199.64 L 501.01 198.98 L 502.64 198.01 L 504.28 197.03 L 505.91 196.05 L 506.56 195.39 z M 442.87 135.30 L 445.49 137.58 L 447.77 140.20 L 450.06 143.46 L 452.02 146.73 L 453.98 150.32 L 455.28 154.57 L 456.59 158.81 L 457.57 163.39 L 458.22 167.96 L 458.55 173.18 L 458.88 178.74 L 458.71 182.33 L 456.92 182.98 L 453.98 184.29 L 451.69 186.25 L 450.39 188.53 L 450.06 191.15 L 450.39 193.76 L 451.69 195.72 L 453.65 197.68 L 456.59 199.31 L 456.75 199.31 L 456.59 199.96 L 455.61 204.54 L 454.31 208.46 L 452.84 211.23 L 449.41 210.74 L 445.16 209.76 L 441.57 208.78 L 438.30 207.48 L 435.36 206.17 L 432.75 204.54 L 430.79 202.90 L 428.83 200.94 L 427.52 198.98 L 426.54 196.70 L 425.89 194.41 L 425.89 191.80 L 426.22 189.19 L 427.20 186.57 L 428.83 183.96 L 430.79 182.00 L 433.73 180.04 L 437.00 178.41 L 441.24 176.78 L 445.81 175.47 L 440.91 174.16 L 436.67 172.20 L 432.75 170.24 L 429.81 168.28 L 427.52 165.67 L 425.89 163.06 L 424.91 160.12 L 424.58 156.85 L 424.91 152.93 L 426.22 149.02 L 428.18 145.42 L 430.79 141.83 L 434.38 138.24 L 438.95 134.64 L 440.42 133.66 z M 529.10 151.30 L 532.04 153.26 L 534.32 155.22 L 536.28 157.51 L 537.91 159.79 L 539.55 162.73 L 540.53 165.67 L 541.18 168.94 L 541.83 172.20 L 541.83 175.80 L 541.83 180.37 L 540.85 184.61 L 539.55 188.53 L 537.91 192.13 L 535.30 195.39 L 532.69 198.33 L 529.10 201.27 L 526.48 202.74 L 526.48 149.83 z M 372.00 187.23 L 370.70 190.17 L 370.70 132.69 L 377.88 132.36 L 386.05 132.03 L 394.70 131.38 z M 506.56 145.75 L 506.56 185.43 L 504.60 183.96 L 501.01 182.65 L 496.76 181.35 L 491.54 180.70 L 485.33 180.37 L 478.15 180.04 L 473.25 180.37 L 473.25 146.89 L 474.55 146.73 L 479.13 146.40 L 483.37 146.08 L 487.29 146.08 L 490.88 145.75 L 493.82 145.75 L 496.76 145.42 L 499.38 145.42 L 501.66 145.42 z M 120.19 130.07 L 124.11 130.40 L 126.40 130.56 L 126.40 130.73 L 125.42 136.93 L 125.09 139.05 L 122.81 138.24 L 119.87 137.91 L 117.58 138.24 L 115.62 138.56 L 113.66 139.54 L 112.03 140.52 L 110.39 141.83 L 109.09 143.46 L 107.78 145.42 L 106.48 147.71 L 105.50 150.32 L 104.52 153.26 L 103.86 156.53 L 103.21 159.79 L 102.88 163.71 L 102.56 167.96 L 102.23 172.20 L 102.23 173.35 L 100.92 173.84 L 97.00 174.82 L 92.43 175.47 L 87.86 175.80 L 83.61 175.80 L 80.02 175.14 L 76.43 174.16 L 73.16 172.86 L 69.90 171.22 L 68.26 170.08 L 68.26 169.59 L 69.24 164.69 L 70.55 159.79 L 70.88 158.98 L 72.18 159.47 L 73.49 159.47 L 75.12 159.47 L 76.43 158.81 L 77.41 158.16 L 78.71 156.85 L 79.69 155.55 L 80.67 153.59 L 81.33 151.30 L 82.31 148.69 L 82.96 146.08 L 83.29 142.81 L 83.61 141.18 L 84.27 140.52 L 87.86 137.58 L 91.78 135.30 L 96.35 133.34 L 100.92 131.71 L 105.82 130.73 L 111.05 130.07 L 116.27 129.75 z M 181.27 100.68 L 180.94 105.58 L 180.61 111.13 L 180.61 117.01 L 180.61 122.89 L 180.94 128.44 L 181.27 133.34 L 181.59 138.24 L 181.92 142.48 L 182.57 146.40 L 183.23 149.99 L 184.21 153.26 L 184.86 156.20 L 185.84 158.81 L 187.15 160.77 L 188.13 162.41 L 189.43 163.71 L 191.06 164.69 L 192.37 165.35 L 194.00 165.35 L 195.64 165.35 L 196.29 165.02 L 196.29 175.14 L 194.33 175.14 L 187.47 175.14 L 181.27 174.49 L 175.39 173.18 L 169.84 171.55 L 164.94 169.59 L 162.98 168.45 L 162.98 99.70 L 170.16 99.70 L 178.00 99.37 L 181.43 99.05 z M 560.12 147.38 L 563.06 143.46 L 566.66 139.87 L 570.25 136.93 L 573.84 134.32 L 577.76 132.69 L 581.68 131.05 L 585.93 130.40 L 590.01 130.07 L 590.17 133.34 L 590.50 138.24 L 590.82 142.48 L 591.48 146.40 L 592.13 149.99 L 593.11 153.26 L 593.76 156.20 L 594.74 158.81 L 596.05 160.77 L 597.03 162.41 L 598.34 163.71 L 599.97 164.69 L 601.28 165.35 L 602.91 165.35 L 604.54 165.35 L 606.17 164.69 L 607.48 163.71 L 608.79 162.41 L 610.09 160.77 L 611.07 158.81 L 612.05 156.20 L 613.03 153.26 L 613.69 150.97 L 613.69 153.91 L 613.69 174.65 L 609.77 175.14 L 603.24 175.14 L 596.38 175.14 L 590.17 174.49 L 584.29 173.18 L 580.37 172.04 L 580.37 157.18 L 580.37 154.57 L 580.05 152.61 L 579.39 150.65 L 578.74 149.34 L 578.09 148.36 L 577.11 147.38 L 575.80 147.06 L 574.49 146.73 L 571.55 147.38 L 568.94 148.69 L 566.66 151.30 L 564.37 154.89 L 562.41 159.14 L 561.92 160.94 L 561.76 160.77 L 558.49 156.85 L 555.55 152.61 L 553.27 147.71 L 551.31 142.48 L 549.67 136.93 L 548.86 131.22 L 551.96 131.05 L 560.12 130.07 z M 302.11 144.12 L 304.72 140.85 L 306.68 138.24 L 306.68 147.38 L 306.03 148.36 L 305.38 150.32 L 304.72 152.28 L 304.07 154.57 L 303.42 157.18 L 302.76 159.79 L 302.44 163.06 L 302.11 166.32 L 302.11 169.92 L 301.78 172.86 L 268.80 172.86 L 268.80 132.69 L 275.98 132.36 L 284.15 132.03 L 292.96 131.38 L 302.11 130.07 z M 706.44 108.19 L 709.71 108.84 L 712.32 109.82 L 714.28 111.13 L 715.91 113.09 L 716.24 113.58 L 716.24 127.62 L 715.91 128.11 L 714.61 129.09 L 712.97 129.75 L 711.34 130.40 L 709.05 130.40 L 707.42 130.40 L 705.79 130.07 L 703.83 129.42 L 701.87 128.44 L 699.58 127.46 L 697.95 127.13 L 696.97 127.13 L 696.32 127.46 L 695.34 127.79 L 695.01 128.44 L 694.36 129.42 L 694.03 130.73 L 693.70 132.03 L 693.70 133.34 L 699.26 135.95 L 704.15 138.89 L 708.07 142.16 L 711.34 145.75 L 713.95 149.34 L 715.59 153.59 L 716.24 155.55 L 716.24 169.59 L 715.59 171.55 L 714.93 172.86 L 681.95 172.86 L 682.27 169.26 L 682.27 165.02 L 682.27 158.81 L 681.95 153.59 L 680.97 149.34 L 679.99 145.42 L 678.68 142.81 L 677.05 140.85 L 676.07 140.03 L 676.07 130.40 L 679.99 130.73 L 684.56 131.38 L 684.23 128.44 L 683.91 126.15 L 684.23 121.91 L 685.21 118.31 L 686.84 115.05 L 688.80 112.44 L 691.42 110.48 L 694.68 109.17 L 698.60 108.19 L 703.17 107.86 z M 248.55 130.73 L 247.57 136.93 L 245.93 142.48 L 243.97 147.71 L 241.69 152.61 L 238.75 156.85 L 235.48 160.77 L 231.89 164.04 L 227.64 166.98 L 223.40 169.59 L 218.17 171.55 L 215.89 172.20 L 215.89 132.69 L 223.72 132.36 L 231.89 132.03 L 240.38 131.05 L 248.55 130.07 z M 656.47 136.93 L 654.84 142.48 L 652.88 147.71 L 650.59 152.61 L 647.65 156.85 L 644.39 160.77 L 640.79 164.04 L 636.55 166.98 L 632.30 169.59 L 631.16 170.08 L 630.34 166.98 L 630.34 162.41 L 630.34 159.14 L 631.00 155.87 L 631.65 152.61 L 632.96 149.67 L 634.59 147.06 L 636.55 144.44 L 638.83 141.83 L 641.45 139.22 L 644.39 137.26 L 647.33 135.30 L 650.59 133.66 L 654.18 132.36 L 657.29 131.54 z M 348.16 143.46 L 350.12 146.73 L 352.08 150.32 L 353.39 154.57 L 354.69 158.81 L 355.67 163.39 L 356.00 165.51 L 346.69 141.50 z M 142.40 139.22 L 144.03 141.18 L 145.34 143.79 L 146.65 146.40 L 147.63 149.02 L 148.28 152.28 L 148.61 155.38 L 146.65 152.61 L 144.36 147.71 L 142.40 142.48 L 141.09 137.91 z M 502.32 131.71 L 498.07 132.69 L 493.50 133.66 L 488.92 133.99 L 484.03 134.32 L 479.78 133.99 L 474.88 133.66 L 473.25 133.50 L 473.25 132.69 L 481.09 132.36 L 489.25 132.03 L 497.74 131.05 L 506.56 130.07 z M 496.76 97.41 L 499.70 98.39 L 501.66 99.70 L 503.62 101.33 L 504.60 103.29 L 505.58 105.90 L 505.58 108.84 L 505.58 111.46 L 504.60 114.07 L 503.62 116.03 L 501.66 117.66 L 499.70 119.29 L 496.76 119.95 L 493.82 120.60 L 490.23 120.93 L 486.31 120.60 L 485.66 120.44 L 485.99 119.95 L 487.62 117.66 L 488.92 114.40 L 489.58 110.48 L 490.23 105.90 L 490.23 100.35 L 490.23 96.76 L 493.82 96.76 z M 239.40 97.41 L 242.34 98.39 L 244.30 99.70 L 246.26 101.33 L 247.24 103.29 L 248.22 105.90 L 248.22 108.84 L 248.22 111.46 L 247.24 114.07 L 246.26 116.03 L 244.30 117.66 L 242.34 119.29 L 239.40 119.95 L 236.46 120.60 L 232.87 120.93 L 228.95 120.60 L 226.01 119.95 L 223.07 119.29 L 221.11 117.66 L 219.15 116.03 L 218.17 114.07 L 217.19 111.46 L 217.19 108.84 L 217.19 105.90 L 218.17 103.29 L 219.15 101.33 L 221.11 99.70 L 223.07 98.39 L 226.01 97.41 L 228.95 96.76 L 232.87 96.76 L 236.46 96.76 z"
 style="fill:#80FF9C; fill-opacity:0.25; fill-rule:nonzero; stroke:#003300; stroke-opacity:1.00; stroke-width:1.50;"/>

</svg>
