<?xml version="1.0" standalone="no"?>
<svg width="800px" height="600px" viewBox="0 0 800 600" version="1.1" xmlns="http://www.w3.org/2000/svg">

 <path d=" M 104.86 258.29 L 147.71 544.00 L 62.00 544.00 z M 156.29 551.14 L 53.43 551.14 L 104.86 209.71 z M 164.86 558.29 L 44.86 558.29 L 104.86 161.14 z M 173.43 565.43 L 36.29 565.43 L 104.86 114.00 z M 182.00 572.57 L 27.71 572.57 L 104.86 66.86 z M 190.57 579.71 L 19.14 579.71 L 104.86 19.71 z M 204.86 44.00 L 547.71 44.00 L 547.71 329.71 L 204.86 329.71 z M 376.29 186.86 L 719.14 186.86 L 719.14 472.57 L 376.29 472.57 z M 562.00 38.29 L 562.00 172.57 L 719.14 172.57 L 724.86 174.00 L 730.57 178.29 L 733.43 184.00 L 733.43 472.57 L 732.00 478.29 L 727.71 484.00 L 722.00 486.86 L 376.29 486.86 L 370.57 485.43 L 364.86 481.14 L 362.00 475.43 L 362.00 344.00 L 199.14 344.00 L 190.57 335.43 L 190.57 38.29 L 199.14 29.71 L 553.43 29.71 z M 562.00 201.14 L 562.00 335.43 L 553.43 344.00 L 390.57 344.00 L 390.57 458.29 L 704.86 458.29 L 704.86 201.14 z M 219.14 58.29 L 219.14 315.43 L 362.00 315.43 L 362.00 186.86 L 363.43 181.14 L 367.71 175.43 L 373.43 172.57 L 533.43 172.57 L 533.43 58.29 z M 390.57 201.14 L 390.57 315.43 L 533.43 315.43 L 533.43 201.14 z"
 style="fill:#80FF9C; fill-opacity:0.25; fill-rule:evenodd; stroke:#003300; stroke-opacity:1.00; stroke-width:1.50;"/>

</svg>
