<?xml version="1.0" standalone="no"?>
<svg width="450px" height="720px" viewBox="0 0 450 720" version="1.1" xmlns="http://www.w3.org/2000/svg">

 <path d=" M 176.12 709.35 L 164.15 706.36 L 153.68 700.38 L 147.70 688.41 L 149.20 677.94 L 150.69 665.97 L 155.18 655.50 L 158.17 646.53 L 150.69 646.53 L 143.21 645.03 L 134.24 645.03 L 125.26 643.54 L 120.78 646.53 L 116.29 655.50 L 108.81 659.99 L 95.35 661.49 L 83.38 661.49 L 69.92 661.49 L 56.46 659.99 L 43.00 659.99 L 29.54 658.50 L 16.08 657.00 L 10.09 646.53 L 14.58 633.07 L 22.06 622.60 L 32.53 613.62 L 40.01 607.64 L 43.00 598.67 L 40.01 591.19 L 32.53 585.21 L 23.56 576.23 L 16.08 565.76 L 13.09 552.30 L 11.59 538.84 L 13.09 525.38 L 14.58 511.91 L 14.58 498.45 L 17.57 486.49 L 19.07 473.03 L 20.56 459.56 L 23.56 446.10 L 29.54 434.14 L 37.02 423.67 L 44.50 414.69 L 53.47 404.22 L 62.44 395.25 L 71.42 386.27 L 81.89 375.80 L 90.86 366.83 L 101.33 356.36 L 110.31 347.38 L 120.78 338.41 L 131.25 329.44 L 141.72 320.46 L 152.19 311.49 L 162.66 307.00 L 174.62 304.01 L 188.09 299.52 L 198.56 292.04 L 204.54 280.08 L 207.53 266.62 L 212.02 254.65 L 216.50 241.19 L 223.98 230.72 L 220.99 221.74 L 213.51 209.78 L 207.53 200.80 L 200.05 191.83 L 192.57 184.35 L 185.09 175.38 L 177.62 167.90 L 170.14 158.92 L 162.66 146.96 L 156.68 133.50 L 149.20 120.03 L 143.21 106.57 L 137.23 93.11 L 131.25 79.65 L 125.26 66.19 L 119.28 52.73 L 116.29 43.75 L 114.79 34.78 L 120.78 22.81 L 128.26 15.33 L 138.73 12.34 L 150.69 10.85 L 164.15 13.84 L 176.12 18.32 L 188.09 25.80 L 198.56 34.78 L 209.03 43.75 L 218.00 54.22 L 226.97 64.69 L 234.45 76.66 L 240.44 88.62 L 247.91 100.59 L 253.90 112.56 L 259.88 124.52 L 265.86 136.49 L 273.34 146.96 L 277.83 134.99 L 279.32 121.53 L 280.82 108.07 L 280.82 93.11 L 283.81 79.65 L 286.80 66.19 L 291.29 55.72 L 295.78 43.75 L 300.26 33.28 L 306.25 22.81 L 319.71 19.82 L 328.68 28.79 L 333.17 42.26 L 333.17 55.72 L 334.67 70.68 L 334.67 84.14 L 334.67 97.60 L 334.67 109.56 L 336.16 120.03 L 336.16 132.00 L 336.16 143.97 L 342.15 143.97 L 354.11 146.96 L 364.58 149.95 L 375.05 155.93 L 384.03 163.41 L 390.01 172.38 L 395.99 181.36 L 401.97 191.83 L 406.46 202.30 L 413.94 214.26 L 421.42 227.73 L 428.90 239.69 L 434.88 248.67 L 437.87 259.14 L 437.87 271.10 L 436.38 283.07 L 433.38 293.54 L 427.40 304.01 L 419.92 311.49 L 410.95 320.46 L 406.46 330.93 L 403.47 339.91 L 407.96 353.37 L 412.44 366.83 L 415.44 380.29 L 416.93 395.25 L 418.43 410.21 L 416.93 423.67 L 415.44 438.62 L 410.95 452.09 L 407.96 465.55 L 403.47 479.01 L 398.98 492.47 L 394.50 505.93 L 391.50 519.39 L 388.51 534.35 L 387.02 547.81 L 385.52 562.77 L 384.03 576.23 L 385.52 589.69 L 390.01 603.15 L 394.50 615.12 L 400.48 627.09 L 406.46 639.05 L 412.44 651.02 L 419.92 662.98 L 427.40 676.44 L 430.39 689.91 L 424.41 698.88 L 412.44 698.88 L 400.48 700.38 L 390.01 698.88 L 379.54 698.88 L 369.07 697.38 L 358.60 692.90 L 349.62 685.42 L 343.64 674.95 L 339.15 664.48 L 336.16 657.00 L 333.17 649.52 L 321.21 648.03 L 310.74 648.03 L 298.77 648.03 L 286.80 646.53 L 274.84 646.53 L 264.37 645.03 L 252.40 643.54 L 238.94 643.54 L 235.95 651.02 L 232.96 658.50 L 229.97 671.96 L 232.96 682.43 L 234.45 694.39 L 234.45 706.36 L 225.48 710.85 L 215.01 710.85 L 206.03 710.85 L 191.08 710.85 L 176.12 709.35 L 176.12 709.35 z M 163.08 17.43 L 174.47 21.71 L 185.81 28.79 L 206.36 46.41 L 223.98 66.97 L 231.10 78.33 L 237.09 90.30 L 244.56 102.26 L 262.51 138.16 L 270.63 149.53 L 272.38 150.58 L 274.43 150.53 L 276.15 149.43 L 281.48 135.81 L 284.56 108.07 L 284.56 93.51 L 290.38 67.35 L 303.62 34.94 L 308.67 26.10 L 318.51 23.92 L 325.42 30.83 L 329.43 42.85 L 329.45 56.09 L 330.93 70.90 L 330.93 109.56 L 332.42 120.24 L 332.45 144.49 L 333.29 146.36 L 334.98 147.51 L 341.65 147.71 L 363.12 153.42 L 372.91 159.01 L 381.21 165.92 L 392.88 183.44 L 398.62 193.49 L 403.02 203.76 L 410.66 216.07 L 418.14 229.54 L 431.46 250.28 L 434.13 259.65 L 434.13 270.88 L 432.70 282.34 L 429.91 292.07 L 424.41 301.71 L 407.96 318.20 L 402.92 329.75 L 399.79 339.22 L 399.93 341.09 L 408.84 367.82 L 411.73 380.84 L 414.67 410.21 L 411.76 437.86 L 407.30 451.28 L 404.35 464.56 L 390.85 505.12 L 384.80 533.93 L 380.29 576.34 L 381.81 590.11 L 386.51 604.47 L 391.15 616.79 L 409.09 652.69 L 416.65 664.79 L 423.87 677.81 L 426.40 689.16 L 422.41 695.14 L 412.44 695.14 L 400.48 696.61 L 390.02 695.14 L 379.75 695.14 L 370.12 693.76 L 360.57 689.67 L 352.54 682.98 L 346.99 673.29 L 336.42 647.67 L 334.95 646.23 L 321.21 644.29 L 298.99 644.29 L 286.80 642.79 L 275.05 642.79 L 252.40 639.80 L 238.42 639.83 L 236.55 640.67 L 235.47 642.15 L 229.32 657.60 L 226.23 672.18 L 229.28 683.16 L 230.71 694.62 L 230.71 704.04 L 224.58 707.11 L 191.30 707.11 L 176.79 705.66 L 165.53 702.84 L 156.53 697.70 L 151.56 687.75 L 154.34 666.96 L 158.62 656.97 L 161.85 647.22 L 161.66 645.17 L 160.41 643.54 L 158.51 642.81 L 151.05 642.79 L 143.44 641.29 L 134.58 641.29 L 125.37 639.80 L 123.38 640.31 L 118.29 643.73 L 113.42 652.87 L 107.59 656.37 L 95.20 657.75 L 70.07 657.75 L 56.46 656.25 L 43.15 656.25 L 18.38 653.50 L 14.16 646.13 L 17.96 634.77 L 24.80 625.19 L 42.73 610.21 L 43.55 608.82 L 46.72 598.31 L 42.97 588.90 L 35.09 582.47 L 26.37 573.75 L 19.56 564.22 L 16.76 551.64 L 15.34 538.84 L 18.32 511.91 L 18.32 498.95 L 21.21 487.40 L 24.24 460.22 L 27.10 447.39 L 32.80 435.99 L 39.89 426.06 L 56.22 406.76 L 112.85 350.14 L 154.21 314.69 L 163.81 310.57 L 175.54 307.64 L 189.75 302.87 L 201.13 294.75 L 207.89 281.75 L 211.12 267.69 L 219.88 242.89 L 227.30 232.45 L 227.71 230.45 L 224.34 220.08 L 210.40 198.41 L 202.70 189.18 L 195.29 181.78 L 187.74 172.73 L 180.34 165.32 L 173.16 156.71 L 165.96 145.21 L 159.95 131.69 L 152.52 118.30 L 122.77 51.38 L 119.94 42.90 L 118.68 35.36 L 123.86 25.03 L 130.23 18.65 L 139.46 16.02 L 150.51 14.63 z M 162.00 21.02 L 172.78 25.07 L 183.58 31.82 L 203.70 49.08 L 220.96 69.19 L 227.83 80.14 L 233.74 91.97 L 241.21 103.94 L 259.16 139.84 L 267.93 152.10 L 270.93 154.02 L 272.46 154.32 L 276.02 153.91 L 278.59 152.27 L 279.64 150.79 L 285.11 136.68 L 288.30 108.07 L 288.30 93.92 L 293.97 68.46 L 306.98 36.60 L 311.09 29.39 L 317.32 28.02 L 322.16 32.86 L 325.69 43.45 L 325.72 56.47 L 327.19 71.12 L 327.22 110.09 L 328.68 120.56 L 328.74 145.01 L 330.12 148.35 L 332.87 150.61 L 334.82 151.25 L 341.10 151.43 L 361.71 156.92 L 370.77 162.09 L 378.40 168.44 L 389.77 185.52 L 395.27 195.15 L 399.58 205.23 L 407.39 217.88 L 414.87 231.35 L 428.01 251.84 L 430.39 260.15 L 430.39 270.65 L 429.02 281.60 L 426.44 290.61 L 421.42 299.40 L 404.68 316.39 L 399.49 328.25 L 396.11 338.54 L 396.28 341.87 L 405.24 368.80 L 408.02 381.40 L 410.90 410.19 L 408.08 437.10 L 403.65 450.47 L 400.75 463.57 L 387.18 504.36 L 381.08 533.54 L 376.56 575.95 L 378.19 591.04 L 382.95 605.64 L 387.79 618.47 L 405.74 654.37 L 413.37 666.60 L 420.34 679.17 L 422.41 688.41 L 420.40 691.40 L 412.44 691.40 L 400.55 692.84 L 390.55 691.43 L 379.96 691.40 L 371.19 690.15 L 362.53 686.44 L 355.46 680.54 L 350.34 671.63 L 339.65 645.78 L 337.18 643.22 L 335.47 642.52 L 321.21 640.55 L 299.20 640.55 L 286.80 639.05 L 275.32 639.05 L 252.90 636.09 L 237.89 636.12 L 234.56 637.50 L 232.16 640.38 L 225.66 656.82 L 222.50 671.91 L 225.60 683.92 L 226.97 694.84 L 226.97 701.72 L 223.68 703.37 L 191.53 703.37 L 177.47 701.96 L 166.91 699.33 L 159.38 695.02 L 155.42 687.11 L 157.99 667.95 L 162.06 658.44 L 165.53 647.89 L 165.29 644.30 L 163.39 641.28 L 161.76 640.05 L 159.37 639.17 L 151.40 639.05 L 143.65 637.56 L 134.91 637.56 L 125.46 636.06 L 121.96 636.85 L 115.80 640.95 L 110.59 650.21 L 106.36 652.75 L 95.05 654.01 L 70.34 654.01 L 56.87 652.53 L 43.30 652.51 L 20.68 650.00 L 18.23 645.72 L 21.33 636.51 L 27.58 627.73 L 45.83 612.32 L 47.01 610.26 L 50.42 598.88 L 50.19 596.92 L 46.22 587.04 L 37.62 579.70 L 29.18 571.26 L 23.05 562.68 L 20.44 550.98 L 19.10 538.82 L 22.06 511.91 L 22.06 499.44 L 24.84 488.31 L 27.92 460.88 L 30.65 448.68 L 36.06 437.85 L 42.75 428.48 L 58.99 409.29 L 115.39 352.89 L 156.23 317.89 L 164.96 314.15 L 176.45 311.28 L 191.42 306.22 L 203.30 297.80 L 204.45 296.47 L 211.42 283.01 L 214.72 268.71 L 223.24 244.64 L 230.97 233.19 L 231.36 229.64 L 227.90 218.93 L 213.27 196.02 L 205.35 186.53 L 198.02 179.21 L 190.39 170.08 L 183.06 162.75 L 176.21 154.54 L 169.25 143.40 L 163.23 129.88 L 155.84 116.56 L 126.25 50.03 L 123.59 42.05 L 122.57 35.94 L 126.94 27.24 L 132.21 21.97 L 140.19 19.70 L 150.33 18.41 z M 160.92 24.61 L 171.14 28.45 L 181.31 34.81 L 201.04 51.74 L 217.94 71.42 L 224.55 81.95 L 230.38 93.65 L 237.86 105.62 L 255.81 141.51 L 265.22 154.68 L 269.38 157.41 L 272.25 158.06 L 276.95 157.53 L 281.03 155.11 L 282.96 152.51 L 288.60 138.03 L 292.04 108.07 L 292.04 94.32 L 297.56 69.57 L 310.35 38.26 L 313.52 32.68 L 316.12 32.12 L 318.90 34.90 L 321.95 44.05 L 322.00 56.84 L 323.45 71.35 L 323.51 110.61 L 324.94 120.87 L 325.03 145.54 L 326.89 150.23 L 331.38 154.03 L 334.14 154.93 L 340.54 155.15 L 360.30 160.42 L 368.63 165.18 L 375.59 170.95 L 386.66 187.60 L 391.92 196.81 L 396.14 206.70 L 404.20 219.84 L 411.59 233.16 L 424.57 253.39 L 426.65 260.66 L 426.65 270.43 L 425.34 280.87 L 422.97 289.14 L 418.41 297.14 L 401.68 314.16 L 395.93 327.09 L 392.37 338.40 L 392.60 342.57 L 401.63 369.79 L 404.31 381.95 L 407.13 410.18 L 404.40 436.34 L 400.00 449.66 L 397.14 462.59 L 383.52 503.60 L 377.35 533.15 L 372.84 576.35 L 374.57 591.95 L 379.39 606.79 L 384.44 620.15 L 402.39 656.04 L 410.10 668.41 L 416.81 680.53 L 418.41 687.66 L 412.44 687.66 L 400.63 689.07 L 391.07 687.72 L 380.17 687.66 L 372.24 686.53 L 364.51 683.21 L 358.36 678.10 L 353.72 670.00 L 342.88 643.88 L 339.48 640.28 L 336.40 638.90 L 321.71 636.84 L 299.40 636.81 L 286.80 635.31 L 275.59 635.31 L 253.39 632.38 L 237.37 632.41 L 232.67 634.26 L 228.98 638.42 L 222.02 655.94 L 218.78 672.18 L 221.92 684.61 L 223.24 695.02 L 223.24 699.40 L 191.75 699.63 L 178.11 698.27 L 168.30 695.81 L 162.22 692.34 L 159.28 686.44 L 161.64 668.94 L 165.50 659.90 L 169.21 648.56 L 168.96 643.54 L 165.89 638.50 L 163.57 636.78 L 159.65 635.45 L 151.74 635.31 L 143.84 633.82 L 135.21 633.82 L 125.53 632.32 L 120.64 633.35 L 113.31 638.15 L 107.81 647.52 L 105.13 649.13 L 94.90 650.27 L 70.61 650.27 L 57.27 648.80 L 43.45 648.77 L 22.99 646.50 L 22.31 645.32 L 24.69 638.23 L 30.38 630.26 L 48.61 614.82 L 50.48 611.65 L 54.11 599.44 L 53.81 595.99 L 49.46 585.18 L 40.26 577.05 L 31.99 568.78 L 26.53 561.14 L 24.12 550.32 L 22.85 538.81 L 25.80 511.91 L 25.80 499.93 L 28.48 489.22 L 31.60 461.54 L 34.19 449.96 L 39.32 439.70 L 45.60 430.91 L 61.76 411.82 L 117.94 355.64 L 158.25 321.09 L 166.11 317.72 L 177.36 314.91 L 193.10 309.57 L 205.47 300.85 L 207.59 298.50 L 214.74 284.73 L 218.33 269.74 L 226.62 246.32 L 234.33 234.83 L 235.08 230.04 L 231.27 217.30 L 216.43 194.00 L 207.99 183.89 L 200.74 176.63 L 193.04 167.43 L 185.77 160.16 L 179.23 152.33 L 172.56 141.65 L 166.50 128.07 L 159.16 114.83 L 129.74 48.69 L 127.24 41.19 L 126.46 36.51 L 129.99 29.48 L 134.18 25.29 L 140.90 23.38 L 150.15 22.20 z M 159.86 28.20 L 169.49 31.83 L 179.04 37.80 L 198.38 54.40 L 214.92 73.65 L 221.28 83.76 L 227.03 95.32 L 234.51 107.29 L 252.46 143.19 L 262.51 157.25 L 267.78 160.79 L 271.95 161.78 L 277.87 161.15 L 283.75 157.68 L 286.44 153.87 L 292.23 138.90 L 295.78 108.07 L 295.78 94.73 L 301.13 70.68 L 313.71 39.92 L 315.49 36.78 L 318.21 44.65 L 318.27 57.21 L 319.71 71.57 L 319.80 111.13 L 321.21 121.19 L 321.44 146.57 L 323.40 151.61 L 324.47 153.09 L 329.37 157.19 L 333.49 158.61 L 339.98 158.88 L 358.90 163.92 L 366.50 168.26 L 372.79 173.49 L 383.41 189.45 L 388.56 198.47 L 392.70 208.16 L 401.02 221.80 L 408.32 234.97 L 421.13 254.95 L 422.91 261.17 L 422.91 270.21 L 421.66 280.14 L 419.50 287.68 L 415.39 294.88 L 398.67 311.94 L 392.37 325.97 L 388.68 337.78 L 388.93 343.29 L 398.03 370.78 L 400.60 382.50 L 403.37 410.16 L 400.70 435.60 L 396.35 448.85 L 393.54 461.60 L 379.85 502.84 L 373.63 532.76 L 369.11 575.96 L 370.95 592.88 L 375.83 607.94 L 381.09 621.82 L 399.04 657.72 L 406.82 670.22 L 413.28 681.87 L 413.75 683.92 L 400.70 685.30 L 391.59 684.01 L 380.39 683.92 L 373.32 682.91 L 366.47 679.97 L 361.26 675.67 L 357.10 668.37 L 345.81 641.56 L 341.83 637.36 L 337.43 635.31 L 321.71 633.10 L 299.58 633.07 L 286.80 631.57 L 275.85 631.57 L 253.88 628.67 L 236.85 628.70 L 230.83 631.00 L 225.87 636.34 L 218.39 655.06 L 215.04 671.96 L 218.24 685.27 L 219.50 695.69 L 191.96 695.89 L 178.78 694.57 L 169.67 692.30 L 165.08 689.67 L 163.14 685.79 L 165.28 669.92 L 169.06 661.07 L 172.95 648.71 L 172.63 642.84 L 168.79 636.13 L 165.37 633.50 L 160.35 631.77 L 152.16 631.57 L 144.02 630.08 L 135.50 630.08 L 125.59 628.58 L 119.37 629.84 L 110.85 635.34 L 105.04 644.82 L 103.89 645.51 L 94.75 646.53 L 70.88 646.53 L 57.67 645.08 L 43.60 645.03 L 26.98 643.19 L 28.06 639.95 L 33.14 632.81 L 51.72 616.90 L 53.93 613.09 L 57.85 599.49 L 57.46 595.15 L 52.71 583.32 L 34.80 566.30 L 30.02 559.60 L 27.80 549.65 L 26.61 538.87 L 29.52 512.32 L 29.54 500.43 L 32.11 490.14 L 35.28 462.23 L 37.74 451.25 L 42.58 441.56 L 48.46 433.33 L 64.52 414.35 L 120.48 358.39 L 160.26 324.29 L 167.26 321.30 L 178.27 318.55 L 195.22 312.65 L 208.23 303.37 L 210.69 300.60 L 218.06 286.45 L 221.90 270.85 L 229.98 248.01 L 237.44 236.91 L 238.03 235.41 L 238.70 229.09 L 234.86 216.22 L 219.30 191.60 L 210.64 181.24 L 203.54 174.13 L 195.91 165.03 L 188.49 157.59 L 182.25 150.11 L 175.87 139.90 L 169.78 126.26 L 162.48 113.09 L 133.22 47.34 L 130.89 40.34 L 130.35 37.08 L 133.04 31.73 L 136.15 28.62 L 141.61 27.06 L 149.97 26.00 z M 158.78 31.79 L 167.80 35.20 L 176.81 40.82 L 195.73 57.06 L 211.90 75.88 L 218.03 85.63 L 223.68 96.99 L 231.16 108.97 L 249.11 144.86 L 260.18 160.18 L 266.13 164.16 L 271.61 165.50 L 278.77 164.79 L 286.09 160.61 L 289.76 155.59 L 295.94 139.33 L 299.52 108.07 L 299.52 95.13 L 304.71 71.78 L 314.49 47.90 L 314.55 57.59 L 315.97 71.80 L 316.09 111.66 L 317.47 121.51 L 317.85 147.63 L 319.92 152.97 L 321.76 155.66 L 327.85 160.60 L 333.28 162.35 L 339.41 162.60 L 357.49 167.42 L 364.36 171.34 L 370.00 176.03 L 380.17 191.31 L 385.19 200.13 L 389.26 209.63 L 397.74 223.61 L 405.04 236.78 L 417.69 256.50 L 419.18 261.68 L 419.18 269.98 L 417.98 279.40 L 416.03 286.21 L 412.37 292.63 L 395.66 309.71 L 388.80 324.84 L 384.98 337.17 L 385.25 343.97 L 394.42 371.75 L 396.89 383.04 L 399.60 410.15 L 397.02 434.81 L 392.79 447.69 L 389.93 460.61 L 376.19 502.07 L 369.91 532.38 L 365.39 576.37 L 367.33 593.79 L 372.33 609.27 L 377.74 623.50 L 395.69 659.39 L 408.36 680.72 L 400.78 681.53 L 392.12 680.30 L 380.63 680.18 L 374.36 679.29 L 368.44 676.74 L 364.16 673.21 L 360.44 666.68 L 349.03 639.65 L 344.16 634.44 L 338.53 631.74 L 321.71 629.36 L 299.76 629.33 L 286.80 627.83 L 276.12 627.83 L 254.38 624.96 L 236.32 624.99 L 229.02 627.73 L 222.80 634.21 L 214.75 654.16 L 211.30 671.75 L 214.56 685.93 L 215.28 691.99 L 192.17 692.15 L 179.46 690.88 L 171.05 688.78 L 167.91 686.97 L 167.00 685.16 L 168.91 670.91 L 172.50 662.53 L 176.64 649.33 L 176.30 642.12 L 171.75 633.85 L 167.21 630.26 L 161.07 628.10 L 152.55 627.83 L 144.19 626.34 L 135.75 626.34 L 125.64 624.84 L 118.13 626.31 L 108.41 632.51 L 102.44 641.92 L 94.60 642.79 L 71.15 642.79 L 58.08 641.35 L 43.75 641.29 L 32.57 640.05 L 35.93 635.36 L 54.83 618.96 L 57.52 614.12 L 61.55 600.01 L 61.11 594.30 L 55.67 581.03 L 37.62 563.83 L 33.50 558.06 L 31.48 548.99 L 30.38 538.93 L 33.25 512.72 L 33.28 500.92 L 35.75 491.05 L 38.96 462.93 L 41.28 452.53 L 45.84 443.41 L 51.32 435.75 L 67.29 416.88 L 123.02 361.15 L 162.28 327.49 L 168.42 324.87 L 179.19 322.18 L 196.93 315.99 L 211.03 305.85 L 213.80 302.66 L 221.38 288.18 L 225.49 271.91 L 233.36 249.68 L 240.81 238.56 L 241.75 235.80 L 242.44 228.97 L 238.25 214.67 L 222.46 189.60 L 213.29 178.59 L 206.33 171.64 L 198.78 162.62 L 191.21 155.02 L 185.30 147.93 L 179.16 138.09 L 173.05 124.45 L 165.80 111.36 L 136.71 46.00 L 134.24 37.65 L 136.09 33.97 L 138.13 31.94 L 142.33 30.74 L 149.81 29.78 z M 157.71 35.38 L 166.16 38.58 L 174.53 43.81 L 193.08 59.73 L 208.88 78.11 L 214.78 87.50 L 220.33 98.65 L 227.81 110.64 L 245.76 146.54 L 257.49 162.77 L 264.50 167.52 L 271.22 169.23 L 279.65 168.42 L 288.37 163.57 L 293.06 157.35 L 299.44 140.66 L 303.26 108.07 L 303.26 95.53 L 308.28 72.89 L 311.53 64.99 L 312.23 72.02 L 312.38 112.18 L 313.73 121.86 L 314.16 148.20 L 316.66 154.78 L 318.99 158.18 L 325.92 163.80 L 332.63 166.03 L 338.84 166.33 L 356.09 170.92 L 362.22 174.42 L 367.17 178.55 L 377.06 193.38 L 381.83 201.79 L 386.06 211.57 L 394.54 225.56 L 401.76 238.59 L 414.25 258.06 L 415.44 262.19 L 415.44 269.76 L 414.30 278.67 L 412.56 284.74 L 409.38 290.34 L 392.37 307.93 L 385.39 323.30 L 381.29 336.57 L 381.57 344.63 L 390.80 372.71 L 393.18 383.55 L 395.83 410.13 L 393.33 434.08 L 389.14 446.88 L 386.33 459.62 L 372.52 501.31 L 366.18 531.99 L 361.66 575.98 L 363.71 594.72 L 368.83 610.60 L 374.39 625.17 L 392.34 661.07 L 402.17 677.61 L 392.16 676.56 L 380.85 676.44 L 375.44 675.67 L 370.40 673.51 L 367.06 670.76 L 363.77 664.99 L 352.24 637.74 L 346.51 631.54 L 339.66 628.18 L 321.71 625.62 L 299.94 625.59 L 286.80 624.09 L 276.39 624.09 L 254.87 621.25 L 235.80 621.28 L 227.24 624.44 L 219.78 632.01 L 211.12 653.25 L 207.56 671.54 L 211.07 688.28 L 192.38 688.41 L 180.10 687.18 L 172.47 685.28 L 170.88 684.36 L 172.56 671.90 L 176.07 663.66 L 180.34 649.94 L 179.98 641.43 L 174.74 631.60 L 169.09 627.03 L 161.81 624.44 L 152.92 624.11 L 144.34 622.60 L 136.00 622.60 L 125.67 621.10 L 116.92 622.78 L 105.99 629.67 L 100.24 638.41 L 94.45 639.05 L 71.42 639.05 L 58.48 637.63 L 43.90 637.56 L 39.65 637.08 L 57.96 621.01 L 60.80 615.93 L 65.26 600.54 L 64.76 593.51 L 58.90 579.15 L 40.49 561.41 L 36.99 556.49 L 35.19 548.46 L 34.15 538.93 L 36.97 513.13 L 37.02 501.41 L 39.38 491.96 L 42.64 463.60 L 44.82 453.82 L 49.10 445.26 L 54.23 438.10 L 69.94 419.52 L 125.56 363.90 L 164.30 330.69 L 169.57 328.45 L 180.10 325.82 L 199.11 319.03 L 213.62 308.56 L 216.62 305.12 L 224.90 289.44 L 229.02 273.15 L 236.73 251.37 L 243.92 240.63 L 245.42 236.52 L 246.18 228.82 L 241.66 213.13 L 225.63 187.61 L 215.94 175.94 L 209.13 169.14 L 201.65 160.21 L 194.01 152.54 L 188.32 145.72 L 182.46 136.34 L 176.33 122.64 L 169.12 109.62 L 140.24 44.75 L 138.25 38.01 L 140.10 35.26 L 143.02 34.42 L 149.65 33.58 z M 156.59 38.95 L 164.53 41.97 L 172.26 46.80 L 190.43 62.39 L 205.85 80.34 L 211.54 89.37 L 216.98 100.31 L 224.46 112.32 L 242.41 148.21 L 254.79 165.35 L 262.86 170.87 L 270.81 172.94 L 280.52 172.06 L 290.62 166.57 L 296.33 159.16 L 303.09 141.50 L 307.00 108.07 L 307.00 95.94 L 308.55 88.91 L 308.67 112.69 L 309.99 122.19 L 310.47 148.78 L 313.38 156.57 L 316.63 161.08 L 323.99 167.00 L 331.96 169.71 L 338.26 170.05 L 354.68 174.42 L 360.08 177.50 L 364.34 181.06 L 373.94 195.46 L 378.48 203.45 L 382.86 213.52 L 391.34 227.50 L 398.49 240.40 L 410.81 259.62 L 411.70 262.70 L 411.70 269.52 L 410.62 277.95 L 409.09 283.28 L 406.37 288.05 L 389.08 306.16 L 381.98 321.76 L 377.59 335.97 L 377.89 345.28 L 387.18 373.63 L 389.47 384.09 L 392.06 410.12 L 389.65 433.28 L 385.58 445.71 L 382.72 458.64 L 368.86 500.55 L 362.46 531.60 L 357.94 576.38 L 360.09 595.63 L 365.33 611.93 L 371.04 626.85 L 388.99 662.74 L 395.14 673.11 L 381.09 672.71 L 376.47 672.05 L 372.37 670.28 L 369.97 668.31 L 367.11 663.30 L 355.46 635.82 L 348.88 628.64 L 340.83 624.63 L 321.71 621.88 L 300.10 621.85 L 286.80 620.35 L 276.66 620.35 L 255.36 617.54 L 235.28 617.57 L 225.48 621.15 L 216.77 629.78 L 207.50 652.33 L 203.82 671.34 L 206.47 684.57 L 192.59 684.67 L 180.74 683.49 L 174.97 682.05 L 176.21 672.88 L 179.65 664.76 L 184.03 650.54 L 183.66 640.76 L 177.76 629.40 L 171.02 623.82 L 162.55 620.77 L 153.26 620.38 L 144.47 618.86 L 136.23 618.86 L 125.68 617.36 L 115.72 619.23 L 103.58 626.82 L 98.07 634.89 L 94.30 635.31 L 71.69 635.31 L 58.88 633.91 L 49.01 633.85 L 61.10 623.05 L 64.39 616.97 L 68.95 601.07 L 68.43 592.73 L 62.13 577.26 L 43.36 559.00 L 40.47 554.93 L 38.90 547.89 L 37.91 538.93 L 40.70 513.53 L 40.76 501.91 L 43.01 492.87 L 46.32 464.26 L 48.37 455.12 L 52.33 447.16 L 57.21 440.36 L 72.59 422.17 L 128.11 366.65 L 166.31 333.89 L 170.72 332.02 L 181.01 329.45 L 200.84 322.35 L 216.21 311.26 L 219.93 306.87 L 228.41 290.71 L 232.55 274.39 L 240.09 253.06 L 247.03 242.71 L 249.08 237.30 L 249.92 228.67 L 245.07 211.60 L 228.50 185.22 L 218.58 173.30 L 211.93 166.64 L 204.52 157.80 L 196.81 150.05 L 191.38 143.55 L 185.74 134.53 L 179.60 120.83 L 172.44 107.89 L 143.77 43.51 L 142.33 38.64 L 149.47 37.37 z M 155.46 42.53 L 162.90 45.35 L 169.99 49.79 L 187.79 65.05 L 202.83 82.57 L 208.29 91.24 L 213.63 101.97 L 221.11 113.99 L 239.06 149.89 L 252.10 167.94 L 261.20 174.22 L 270.38 176.65 L 281.37 175.69 L 292.85 169.57 L 299.58 161.02 L 306.62 142.71 L 306.77 149.37 L 310.09 158.35 L 313.92 163.66 L 322.07 170.22 L 331.26 173.39 L 337.67 173.78 L 353.27 177.92 L 357.94 180.58 L 361.51 183.57 L 370.83 197.54 L 375.10 205.07 L 379.66 215.46 L 388.14 229.45 L 395.21 242.21 L 407.37 261.17 L 407.96 263.21 L 407.96 269.28 L 406.94 277.24 L 405.62 281.80 L 403.37 285.78 L 385.78 304.41 L 378.57 320.21 L 373.90 335.37 L 374.21 345.90 L 383.59 374.73 L 385.76 384.60 L 388.29 410.10 L 385.97 432.49 L 382.02 444.55 L 379.12 457.65 L 365.19 499.80 L 358.73 531.22 L 354.22 576.01 L 356.47 596.56 L 361.77 613.07 L 367.69 628.52 L 385.64 664.42 L 388.45 669.18 L 377.49 668.41 L 374.32 667.04 L 372.87 665.85 L 370.47 661.65 L 358.37 633.47 L 351.25 625.75 L 342.01 621.09 L 321.73 618.14 L 300.25 618.11 L 286.80 616.62 L 276.93 616.62 L 255.86 613.83 L 234.75 613.86 L 223.73 617.84 L 213.80 627.50 L 203.88 651.41 L 200.08 671.15 L 201.92 680.86 L 192.80 680.93 L 179.13 679.23 L 179.86 673.87 L 183.22 665.87 L 187.73 651.14 L 187.34 640.10 L 180.82 627.24 L 172.98 620.64 L 163.32 617.11 L 153.61 616.66 L 144.59 615.12 L 136.54 615.12 L 125.18 613.65 L 114.05 615.88 L 101.18 623.94 L 95.93 631.38 L 71.96 631.57 L 58.75 630.17 L 63.96 625.47 L 67.89 618.29 L 72.66 601.60 L 72.09 591.98 L 65.36 575.39 L 46.25 556.59 L 43.96 553.38 L 42.58 547.21 L 41.67 538.99 L 44.42 513.93 L 44.50 502.42 L 46.65 493.79 L 50.00 464.95 L 51.93 456.38 L 55.55 449.11 L 60.19 442.62 L 75.23 424.82 L 130.65 369.40 L 168.31 337.11 L 171.86 335.60 L 181.92 333.09 L 203.03 325.38 L 218.79 313.97 L 222.79 309.29 L 231.93 291.98 L 236.11 275.53 L 243.46 254.75 L 250.14 244.79 L 252.73 238.12 L 253.66 228.52 L 248.50 210.09 L 231.37 182.82 L 221.23 170.65 L 214.72 164.14 L 207.40 155.39 L 199.60 147.57 L 194.43 141.38 L 189.01 132.72 L 182.88 119.02 L 175.76 106.15 L 147.10 41.58 L 149.39 41.18 z M 161.22 48.72 L 167.76 52.82 L 185.14 67.71 L 199.81 84.79 L 205.05 93.11 L 210.28 103.63 L 217.76 115.67 L 235.71 151.56 L 249.41 170.53 L 259.52 177.56 L 269.93 180.36 L 282.21 179.34 L 295.04 172.59 L 302.81 162.90 L 305.37 156.38 L 307.06 160.54 L 311.21 166.25 L 320.16 173.43 L 330.54 177.05 L 337.09 177.50 L 351.87 181.42 L 355.80 183.66 L 358.69 186.09 L 367.63 199.49 L 371.78 206.80 L 376.46 217.41 L 392.07 244.22 L 403.93 262.73 L 404.22 269.04 L 403.28 276.46 L 402.15 280.36 L 400.37 283.49 L 382.72 302.24 L 374.99 319.10 L 370.21 334.78 L 370.53 346.53 L 379.99 375.74 L 382.05 385.14 L 384.52 410.09 L 382.29 431.70 L 378.46 443.38 L 375.50 456.71 L 361.53 499.05 L 355.01 530.85 L 350.49 576.41 L 352.85 597.47 L 358.21 614.21 L 364.34 630.20 L 381.72 664.97 L 378.40 664.73 L 375.77 663.39 L 373.85 660.04 L 361.28 631.11 L 353.20 622.57 L 343.22 617.54 L 321.74 614.40 L 300.40 614.37 L 286.80 612.88 L 277.20 612.88 L 256.35 610.12 L 234.23 610.15 L 221.98 614.54 L 210.55 625.63 L 200.43 649.97 L 196.34 670.96 L 197.40 677.15 L 193.01 677.19 L 183.34 675.98 L 186.80 666.96 L 191.42 651.72 L 191.02 639.46 L 183.57 624.69 L 174.97 617.47 L 164.11 613.46 L 153.92 612.92 L 144.71 611.38 L 136.78 611.38 L 125.13 609.91 L 112.82 612.35 L 98.78 621.09 L 93.99 627.65 L 72.18 627.83 L 67.22 627.29 L 71.39 619.62 L 76.37 602.12 L 75.76 591.25 L 68.59 573.52 L 49.13 554.20 L 47.44 551.81 L 46.26 546.56 L 45.44 539.05 L 48.15 514.34 L 48.24 502.93 L 50.28 494.70 L 53.68 465.64 L 55.47 457.63 L 58.78 450.99 L 63.10 444.97 L 77.88 427.47 L 133.19 372.15 L 170.32 340.31 L 173.01 339.17 L 182.84 336.72 L 205.23 328.42 L 221.38 316.66 L 226.09 311.04 L 235.44 293.25 L 239.67 276.67 L 246.82 256.44 L 253.25 246.87 L 256.37 238.97 L 257.40 228.35 L 251.92 208.60 L 234.24 180.43 L 223.88 168.00 L 217.52 161.65 L 210.27 152.99 L 202.40 145.09 L 197.48 139.21 L 192.29 130.91 L 186.16 117.21 L 179.13 104.49 L 153.09 45.83 z M 165.53 55.84 L 182.49 70.38 L 196.79 87.02 L 201.80 94.98 L 206.93 105.29 L 214.41 117.34 L 232.36 153.24 L 246.72 173.12 L 257.83 180.90 L 269.47 184.07 L 283.03 182.99 L 297.23 175.63 L 305.78 165.15 L 308.52 168.85 L 318.24 176.65 L 329.81 180.72 L 336.42 181.19 L 350.46 184.92 L 355.86 188.60 L 364.43 201.43 L 368.43 208.49 L 373.03 218.92 L 388.84 246.11 L 400.24 263.88 L 400.46 268.90 L 399.60 275.74 L 398.68 278.90 L 397.34 281.26 L 379.67 300.07 L 371.42 318.01 L 366.51 334.19 L 366.84 347.15 L 376.38 376.76 L 378.34 385.68 L 380.75 410.07 L 378.61 430.91 L 374.90 442.21 L 371.88 455.76 L 357.87 498.30 L 351.28 530.48 L 346.77 576.04 L 349.24 598.40 L 356.77 620.89 L 355.11 619.35 L 344.43 614.00 L 321.77 610.66 L 300.67 610.63 L 287.21 609.15 L 277.47 609.14 L 256.84 606.41 L 233.71 606.44 L 220.24 611.23 L 207.60 623.33 L 196.81 649.03 L 192.60 670.76 L 192.98 673.42 L 188.53 672.87 L 190.37 668.05 L 195.16 651.60 L 194.70 638.81 L 186.63 622.57 L 176.96 614.30 L 164.90 609.81 L 154.34 609.20 L 144.81 607.64 L 137.01 607.64 L 125.09 606.18 L 111.59 608.82 L 96.38 618.22 L 92.07 623.93 L 73.21 624.08 L 74.68 621.40 L 80.08 602.65 L 79.42 590.53 L 71.84 571.65 L 50.93 550.26 L 49.21 539.05 L 51.87 514.74 L 51.97 503.42 L 53.92 495.60 L 57.36 466.32 L 59.03 458.89 L 62.00 452.94 L 66.08 447.22 L 80.53 430.11 L 135.74 374.91 L 172.34 343.51 L 184.14 340.22 L 207.43 331.44 L 223.98 319.35 L 228.96 313.45 L 238.96 294.53 L 243.23 277.80 L 250.19 258.13 L 256.74 248.25 L 260.00 239.86 L 261.14 228.21 L 255.35 207.12 L 237.12 178.04 L 226.53 165.35 L 220.32 159.15 L 213.14 150.58 L 205.20 142.60 L 200.53 137.04 L 195.56 129.10 L 189.43 115.40 L 182.40 102.68 L 160.10 52.43 z M 179.84 73.04 L 193.77 89.25 L 198.56 96.85 L 203.58 106.95 L 211.06 119.02 L 229.01 154.91 L 244.03 175.71 L 256.13 184.23 L 268.99 187.78 L 283.84 186.64 L 299.40 178.68 L 305.65 171.23 L 316.33 179.86 L 329.06 184.38 L 335.74 184.89 L 348.88 188.37 L 353.15 191.29 L 361.23 203.38 L 365.07 210.18 L 369.61 220.43 L 385.61 247.99 L 396.54 265.03 L 396.71 268.78 L 395.92 275.01 L 394.30 279.03 L 376.35 298.35 L 368.02 316.44 L 362.82 333.61 L 363.15 347.76 L 372.78 377.78 L 374.63 386.21 L 376.98 410.06 L 374.93 430.11 L 371.34 441.05 L 368.26 454.82 L 354.20 497.56 L 347.56 530.10 L 343.04 575.66 L 345.62 599.32 L 350.07 612.65 L 345.63 610.45 L 321.80 606.92 L 300.94 606.89 L 287.61 605.43 L 277.74 605.40 L 257.34 602.71 L 233.18 602.74 L 218.52 607.91 L 204.37 621.45 L 197.88 636.82 L 189.40 620.06 L 178.98 611.14 L 165.71 606.16 L 154.73 605.47 L 144.90 603.90 L 137.23 603.90 L 125.03 602.44 L 110.37 605.29 L 94.00 615.33 L 90.19 620.21 L 78.88 620.29 L 83.82 602.66 L 82.95 589.32 L 74.80 569.37 L 54.44 548.50 L 52.98 539.00 L 55.59 515.15 L 55.71 503.91 L 57.55 496.49 L 61.04 467.01 L 62.58 460.15 L 65.23 454.82 L 69.00 449.57 L 83.18 432.76 L 138.28 377.66 L 174.15 346.89 L 185.14 343.82 L 208.74 334.94 L 226.59 322.05 L 232.27 315.20 L 242.47 295.80 L 246.79 278.96 L 253.57 259.78 L 260.22 249.61 L 263.63 240.71 L 264.88 228.06 L 258.79 205.63 L 239.99 175.65 L 229.17 162.71 L 223.12 156.65 L 216.01 148.17 L 208.07 140.20 L 203.55 134.81 L 198.84 127.29 L 192.71 113.59 L 185.77 101.02 L 169.34 64.05 z M 314.40 183.06 L 328.31 188.04 L 335.07 188.58 L 347.29 191.83 L 350.45 193.98 L 358.03 205.32 L 361.72 211.87 L 366.18 221.94 L 382.38 249.88 L 392.85 266.18 L 392.27 274.06 L 391.09 277.00 L 373.29 296.22 L 364.45 315.35 L 359.12 333.03 L 359.45 348.36 L 369.16 378.74 L 370.92 386.75 L 373.21 410.06 L 371.25 429.32 L 367.78 439.88 L 364.63 453.93 L 350.54 496.81 L 343.84 529.73 L 339.32 576.07 L 342.00 600.24 L 344.06 606.44 L 322.36 603.23 L 301.21 603.15 L 288.01 601.70 L 278.01 601.66 L 257.83 599.00 L 232.66 599.03 L 216.80 604.59 L 201.44 619.13 L 197.58 627.94 L 192.15 617.51 L 181.00 607.99 L 166.53 602.51 L 155.07 601.73 L 144.98 600.16 L 137.43 600.16 L 124.95 598.70 L 109.16 601.76 L 91.63 612.44 L 88.35 616.48 L 83.82 616.51 L 87.53 603.15 L 86.62 588.56 L 78.03 567.48 L 57.96 546.74 L 56.75 538.96 L 59.32 515.55 L 59.45 504.41 L 61.19 497.39 L 64.72 467.70 L 66.14 461.40 L 68.44 456.77 L 71.97 451.83 L 85.87 435.36 L 140.82 380.41 L 175.96 350.27 L 186.14 347.43 L 210.54 338.23 L 228.77 325.08 L 235.46 317.17 L 245.78 297.53 L 250.35 280.11 L 256.95 261.44 L 263.35 251.66 L 267.28 241.55 L 268.62 227.91 L 262.23 204.17 L 249.90 184.41 L 254.88 187.76 L 268.51 191.49 L 284.63 190.29 L 301.55 181.75 L 306.16 176.44 z M 190.75 91.48 L 195.31 98.72 L 200.40 108.92 L 207.80 120.87 L 222.26 149.78 L 218.88 145.76 L 210.94 137.79 L 206.57 132.58 L 202.12 125.48 L 195.98 111.78 L 189.04 99.21 L 180.11 79.10 z M 312.49 186.28 L 327.55 191.71 L 334.40 192.28 L 345.74 195.28 L 347.72 196.65 L 354.83 207.26 L 358.37 213.56 L 362.76 223.45 L 379.24 251.90 L 389.04 267.15 L 388.59 273.20 L 387.87 274.96 L 370.22 294.08 L 360.87 314.27 L 355.43 332.46 L 355.76 348.96 L 365.54 379.69 L 367.21 387.31 L 369.46 410.04 L 367.57 428.53 L 364.22 438.71 L 361.02 452.88 L 346.98 495.64 L 340.11 529.37 L 335.59 575.71 L 338.60 601.85 L 322.91 599.53 L 301.48 599.41 L 288.42 597.98 L 278.28 597.92 L 258.32 595.29 L 232.13 595.32 L 215.08 601.27 L 198.53 616.79 L 197.30 619.28 L 195.21 615.34 L 183.01 604.83 L 167.35 598.86 L 155.54 598.02 L 145.04 596.42 L 137.60 596.42 L 124.88 594.96 L 107.94 598.23 L 89.73 609.21 L 91.24 603.65 L 90.28 587.81 L 81.26 565.61 L 61.47 544.97 L 60.51 538.90 L 63.04 515.95 L 63.19 504.90 L 64.82 498.29 L 68.40 468.37 L 69.68 462.66 L 71.67 458.65 L 74.89 454.18 L 88.51 438.01 L 143.36 383.16 L 177.76 353.65 L 187.14 351.03 L 212.72 341.27 L 231.36 327.79 L 238.31 319.58 L 249.29 298.80 L 253.94 281.18 L 260.33 263.10 L 266.84 253.02 L 270.92 242.41 L 272.35 227.76 L 265.67 202.70 L 259.63 192.94 L 268.03 195.19 L 285.43 193.94 L 303.68 184.81 L 306.62 181.61 z M 311.05 189.74 L 326.78 195.37 L 333.72 195.97 L 344.18 198.74 L 345.00 199.31 L 351.63 209.21 L 355.02 215.25 L 359.33 224.96 L 376.10 253.92 L 385.22 268.13 L 384.65 272.91 L 366.88 292.39 L 357.48 312.70 L 351.73 331.89 L 352.06 349.54 L 361.92 380.65 L 363.50 387.84 L 365.69 410.04 L 363.88 427.79 L 360.57 437.89 L 357.42 451.83 L 343.42 494.47 L 336.39 529.01 L 331.87 575.35 L 334.34 597.44 L 322.93 595.79 L 301.76 595.68 L 288.82 594.25 L 278.56 594.18 L 258.82 591.58 L 231.61 591.61 L 213.38 597.95 L 197.63 612.52 L 185.05 601.69 L 168.19 595.21 L 156.00 594.31 L 145.08 592.68 L 137.78 592.68 L 124.79 591.22 L 106.73 594.69 L 94.87 601.75 L 93.81 586.57 L 84.21 563.31 L 64.99 543.24 L 64.28 538.78 L 66.78 516.00 L 66.93 505.39 L 68.46 499.19 L 72.08 469.05 L 73.24 463.92 L 74.89 460.60 L 77.87 456.44 L 91.21 440.61 L 145.91 385.91 L 179.57 357.03 L 188.47 354.53 L 214.05 344.77 L 233.94 330.48 L 241.17 322.00 L 252.81 300.07 L 257.53 282.26 L 263.71 264.76 L 269.98 255.05 L 274.55 243.27 L 276.09 227.61 L 269.11 201.25 L 267.73 198.92 L 286.71 197.45 L 305.35 188.16 L 307.01 186.71 z M 309.24 193.01 L 326.02 199.04 L 333.04 199.67 L 342.40 202.13 L 348.52 211.29 L 351.64 216.87 L 355.91 226.47 L 372.96 255.94 L 381.35 269.01 L 381.09 271.25 L 363.53 290.71 L 354.08 311.13 L 347.99 331.84 L 348.37 350.12 L 358.30 381.61 L 359.79 388.40 L 361.93 410.03 L 360.20 427.00 L 357.01 436.72 L 353.81 450.78 L 339.86 493.31 L 332.66 528.65 L 328.15 574.99 L 330.09 593.06 L 322.94 592.06 L 302.04 591.94 L 289.23 590.53 L 278.85 590.44 L 259.31 587.87 L 231.09 587.90 L 211.67 594.61 L 197.52 607.51 L 186.62 598.29 L 169.04 591.56 L 156.44 590.60 L 145.11 588.94 L 137.93 588.94 L 124.68 587.48 L 105.52 591.14 L 98.18 595.42 L 97.47 585.79 L 87.44 561.42 L 68.50 541.49 L 68.05 538.72 L 70.51 516.40 L 70.67 505.89 L 72.09 500.08 L 75.76 469.74 L 76.79 465.17 L 80.84 458.70 L 93.90 443.22 L 148.46 388.65 L 181.38 360.41 L 189.49 358.14 L 215.38 348.27 L 236.52 333.19 L 244.47 323.75 L 256.32 301.36 L 261.12 283.34 L 267.09 266.42 L 273.12 257.09 L 278.19 244.12 L 279.83 227.46 L 273.24 202.24 L 287.52 201.10 L 307.12 191.46 z M 325.26 202.70 L 332.36 203.36 L 340.08 205.40 L 348.34 218.60 L 352.68 228.34 L 369.82 257.96 L 377.40 269.77 L 360.44 288.62 L 350.51 310.04 L 344.25 331.81 L 344.67 350.72 L 354.66 382.52 L 356.09 388.94 L 358.16 410.03 L 356.52 426.21 L 353.45 435.56 L 350.22 449.74 L 336.30 492.14 L 328.94 528.29 L 324.42 574.63 L 325.86 588.68 L 302.33 588.20 L 289.63 586.81 L 279.13 586.70 L 259.81 584.16 L 230.56 584.19 L 209.97 591.28 L 197.43 602.54 L 188.16 594.88 L 169.88 587.91 L 156.82 586.90 L 145.14 585.21 L 138.07 585.21 L 124.58 583.74 L 104.32 587.60 L 101.47 589.18 L 100.99 584.50 L 90.67 559.54 L 72.02 539.76 L 74.25 516.46 L 74.41 506.37 L 75.73 500.97 L 79.44 470.42 L 80.29 466.62 L 83.89 460.87 L 96.59 445.82 L 151.01 391.40 L 183.19 363.79 L 190.51 361.74 L 217.55 351.32 L 239.09 335.91 L 247.78 325.50 L 259.84 302.63 L 264.71 284.41 L 270.47 268.08 L 276.60 258.45 L 281.82 244.99 L 283.57 227.31 L 277.98 205.60 L 288.33 204.75 L 306.73 195.81 z M 324.45 206.35 L 331.69 207.06 L 337.69 208.64 L 345.05 220.41 L 349.26 229.87 L 366.68 259.97 L 372.72 269.38 L 357.07 286.97 L 347.11 308.47 L 340.54 331.29 L 340.98 351.32 L 351.09 383.64 L 352.38 389.49 L 354.40 410.03 L 352.84 425.42 L 349.89 434.39 L 346.62 448.72 L 332.74 490.97 L 325.21 527.93 L 320.70 574.27 L 321.70 584.85 L 302.64 584.46 L 290.03 583.08 L 279.41 582.96 L 260.30 580.45 L 230.04 580.48 L 208.28 587.94 L 197.33 597.60 L 190.12 591.70 L 170.72 584.26 L 157.21 583.19 L 145.16 581.47 L 138.34 581.47 L 124.98 580.01 L 104.62 583.60 L 93.90 557.64 L 75.91 538.43 L 77.97 516.82 L 78.15 506.84 L 79.36 501.85 L 83.80 468.07 L 86.94 463.03 L 99.24 448.47 L 153.55 394.16 L 185.00 367.17 L 191.51 365.35 L 219.36 354.59 L 241.96 338.31 L 250.95 327.48 L 263.14 304.38 L 268.24 285.66 L 273.87 269.71 L 279.76 260.45 L 285.46 245.84 L 287.31 227.16 L 282.71 208.97 L 289.15 208.40 L 306.94 199.86 z M 323.64 210.00 L 331.02 210.75 L 335.29 211.89 L 341.76 222.22 L 345.85 231.39 L 363.53 261.99 L 368.04 269.01 L 353.96 284.89 L 343.54 307.37 L 336.84 330.77 L 337.28 351.92 L 347.51 384.76 L 348.67 390.04 L 350.64 410.01 L 349.16 424.62 L 346.33 433.22 L 343.01 447.70 L 329.18 489.81 L 321.49 527.57 L 316.97 573.91 L 317.57 581.02 L 302.96 580.72 L 290.44 579.36 L 279.70 579.22 L 260.79 576.74 L 229.52 576.77 L 206.59 584.61 L 197.24 592.71 L 192.06 588.51 L 171.56 580.61 L 157.54 579.46 L 145.17 577.73 L 138.61 577.73 L 125.38 576.29 L 106.93 579.40 L 97.13 555.75 L 79.79 537.12 L 81.69 517.18 L 81.87 507.32 L 83.07 502.34 L 87.41 469.35 L 89.97 465.25 L 101.89 451.11 L 156.09 396.91 L 186.81 370.55 L 192.53 368.95 L 221.17 357.87 L 244.55 341.01 L 254.14 329.45 L 266.45 306.13 L 271.77 286.90 L 277.26 271.34 L 283.24 261.81 L 289.09 246.71 L 291.05 227.01 L 287.40 212.31 L 289.99 212.05 L 307.12 203.91 z M 322.36 213.52 L 332.90 215.13 L 338.47 224.03 L 342.44 232.92 L 363.37 268.63 L 350.57 283.32 L 339.96 306.28 L 333.13 330.24 L 333.59 352.51 L 343.94 385.87 L 344.96 390.55 L 346.87 410.01 L 345.47 423.89 L 342.68 432.39 L 339.41 446.69 L 325.62 488.64 L 317.76 527.22 L 313.25 573.55 L 313.50 577.19 L 303.27 576.98 L 290.84 575.63 L 279.98 575.48 L 261.29 573.03 L 228.99 573.06 L 204.90 581.27 L 197.16 587.82 L 193.53 585.07 L 171.90 576.89 L 158.07 575.75 L 145.70 574.02 L 138.88 573.99 L 125.79 572.57 L 109.25 575.21 L 100.36 553.85 L 83.68 535.80 L 85.42 517.54 L 85.61 507.79 L 86.78 502.84 L 91.01 470.62 L 92.99 467.46 L 104.58 453.72 L 158.63 399.66 L 188.62 373.93 L 193.53 372.56 L 223.35 360.91 L 247.14 343.72 L 257.44 331.20 L 269.96 307.40 L 275.35 288.02 L 280.66 272.99 L 286.41 263.80 L 292.73 247.56 L 294.79 226.86 L 291.99 215.24 L 307.29 207.97 z M 321.07 217.03 L 330.63 218.57 L 335.19 225.84 L 339.21 234.80 L 358.79 268.22 L 347.44 281.27 L 336.57 304.71 L 329.42 329.72 L 329.90 353.11 L 340.37 386.98 L 341.25 391.07 L 343.12 410.00 L 341.79 423.10 L 339.12 431.22 L 335.76 445.85 L 321.95 487.89 L 314.04 526.86 L 309.52 573.36 L 303.59 573.24 L 291.25 571.91 L 280.27 571.74 L 261.78 569.32 L 228.47 569.35 L 203.21 577.94 L 197.03 583.04 L 195.35 581.81 L 172.72 573.24 L 158.59 572.04 L 146.22 570.31 L 139.15 570.25 L 126.19 568.84 L 111.56 571.06 L 103.29 551.52 L 87.57 534.49 L 89.14 517.90 L 89.35 508.22 L 90.49 503.33 L 94.62 471.92 L 96.04 469.63 L 107.27 456.32 L 161.18 402.41 L 190.43 377.31 L 194.55 376.16 L 225.54 363.94 L 249.72 346.41 L 260.33 333.58 L 273.48 308.68 L 278.92 289.16 L 284.05 274.63 L 289.90 265.16 L 296.36 248.41 L 298.53 226.71 L 296.33 217.32 L 307.47 212.02 z M 319.78 220.55 L 328.35 222.00 L 331.91 227.65 L 335.98 236.69 L 354.20 267.78 L 344.30 279.24 L 333.17 303.14 L 325.71 329.20 L 326.20 353.71 L 337.54 391.58 L 339.35 410.00 L 338.11 422.31 L 335.56 430.05 L 332.15 444.83 L 318.39 486.73 L 310.32 526.50 L 306.13 569.54 L 291.31 568.17 L 280.54 568.00 L 262.26 565.61 L 227.95 565.64 L 201.53 574.60 L 196.81 578.37 L 174.06 569.74 L 159.11 568.33 L 146.74 566.60 L 139.43 566.51 L 126.60 565.12 L 113.87 566.93 L 106.51 549.61 L 91.46 533.17 L 92.87 518.26 L 93.08 508.73 L 94.14 504.18 L 98.22 473.19 L 109.92 458.97 L 163.72 405.16 L 192.24 380.69 L 195.92 379.65 L 226.91 367.43 L 252.31 349.10 L 263.63 335.33 L 276.99 309.95 L 282.50 290.29 L 287.45 276.25 L 293.09 267.12 L 300.00 249.26 L 302.27 226.56 L 300.65 219.41 L 307.65 216.07 z M 318.50 224.06 L 326.07 225.39 L 328.61 229.43 L 332.57 238.23 L 349.62 267.36 L 341.16 277.21 L 329.78 301.56 L 322.00 328.67 L 322.51 354.31 L 333.84 392.27 L 335.59 409.98 L 334.43 421.51 L 332.00 428.89 L 328.55 443.80 L 314.83 485.56 L 306.59 526.14 L 302.76 565.48 L 291.65 564.44 L 280.81 564.26 L 262.74 561.90 L 227.42 561.93 L 199.86 571.26 L 196.15 574.12 L 174.89 566.09 L 159.64 564.62 L 147.27 562.89 L 139.73 562.77 L 127.00 561.39 L 116.19 562.81 L 109.43 547.26 L 95.34 531.87 L 96.59 518.60 L 96.80 509.16 L 97.85 504.68 L 101.80 474.73 L 112.67 461.51 L 166.26 407.92 L 194.08 384.04 L 197.30 383.13 L 228.29 370.91 L 254.90 351.81 L 266.52 337.71 L 280.51 311.22 L 286.07 291.43 L 290.84 277.86 L 296.27 269.08 L 303.63 250.12 L 306.01 226.41 L 304.96 221.50 L 307.85 220.13 z M 317.20 227.58 L 323.78 228.79 L 325.30 231.21 L 329.16 239.77 L 345.05 266.94 L 338.32 274.77 L 326.20 300.45 L 318.29 328.15 L 318.81 354.89 L 330.15 393.02 L 331.84 409.98 L 330.75 420.72 L 328.44 427.72 L 324.94 442.77 L 311.27 484.39 L 302.87 525.78 L 299.40 561.41 L 291.99 560.72 L 281.09 560.53 L 263.22 558.19 L 226.90 558.22 L 198.18 567.93 L 195.52 569.89 L 175.25 562.37 L 147.33 559.15 L 140.03 559.03 L 127.40 557.67 L 118.49 558.73 L 112.31 544.88 L 99.21 530.57 L 100.32 518.96 L 100.53 509.60 L 101.56 505.17 L 105.37 476.27 L 115.42 464.05 L 168.81 410.67 L 195.89 387.43 L 230.13 374.17 L 257.08 354.85 L 269.71 339.67 L 283.81 312.97 L 289.68 292.45 L 294.24 279.48 L 299.46 271.04 L 307.26 250.97 L 309.75 226.26 L 309.46 224.72 z M 315.90 231.09 L 321.49 232.17 L 325.93 241.65 L 340.47 266.53 L 334.94 273.17 L 322.63 299.34 L 314.58 327.63 L 315.12 355.48 L 326.46 393.75 L 328.07 409.98 L 327.05 419.99 L 324.81 426.87 L 321.38 441.60 L 307.71 483.23 L 299.14 525.42 L 296.03 557.34 L 281.37 556.79 L 263.69 554.48 L 226.38 554.51 L 196.51 564.58 L 194.94 565.69 L 175.69 558.66 L 147.39 555.41 L 140.33 555.29 L 127.81 553.94 L 120.78 554.69 L 115.18 542.49 L 103.10 529.28 L 104.04 519.32 L 104.25 510.03 L 105.27 505.66 L 108.95 477.81 L 118.18 466.59 L 171.35 413.42 L 197.87 390.67 L 232.31 377.21 L 259.66 357.56 L 273.01 341.42 L 287.33 314.24 L 293.21 293.69 L 297.62 281.12 L 302.64 273.02 L 310.90 251.84 L 313.13 230.07 z M 318.92 235.47 L 322.70 243.54 L 335.92 266.15 L 331.56 271.58 L 319.05 298.24 L 310.87 327.10 L 311.42 356.06 L 322.76 394.49 L 324.30 409.98 L 323.37 419.19 L 321.16 426.01 L 317.76 440.61 L 304.15 482.06 L 295.42 525.06 L 292.65 553.47 L 281.67 553.05 L 264.17 550.77 L 225.85 550.80 L 194.38 561.50 L 176.97 555.14 L 147.45 551.67 L 140.63 551.55 L 128.21 550.22 L 123.05 550.68 L 118.34 540.47 L 106.97 527.98 L 107.76 519.68 L 107.97 510.46 L 108.98 506.16 L 112.52 479.35 L 120.93 469.14 L 173.89 416.17 L 199.83 393.92 L 233.68 380.69 L 262.24 360.26 L 276.32 343.17 L 290.84 315.51 L 296.74 294.93 L 301.03 282.72 L 306.13 274.38 L 314.53 252.71 L 316.39 234.98 z M 331.39 265.81 L 328.64 269.23 L 315.48 297.13 L 307.13 327.10 L 307.68 356.13 L 319.07 395.20 L 320.53 409.98 L 319.69 418.43 L 317.51 425.16 L 314.15 439.63 L 300.59 480.89 L 291.69 524.70 L 289.27 549.59 L 281.96 549.31 L 264.65 547.06 L 225.33 547.09 L 194.43 557.53 L 178.26 551.63 L 147.51 547.93 L 140.93 547.81 L 128.62 546.50 L 125.34 546.72 L 121.18 538.03 L 110.86 526.69 L 111.70 510.90 L 112.69 506.65 L 116.10 480.89 L 123.68 471.68 L 176.43 418.93 L 201.79 397.16 L 235.04 384.18 L 264.82 362.97 L 279.21 345.54 L 294.36 316.78 L 300.26 296.17 L 304.44 284.29 L 309.61 275.72 L 318.17 253.56 L 319.14 244.72 z M 326.86 265.46 L 325.26 267.63 L 311.90 296.02 L 303.42 326.61 L 303.99 356.72 L 315.37 395.89 L 316.78 409.98 L 316.01 417.67 L 313.95 424.01 L 310.59 438.46 L 297.03 479.73 L 287.97 524.34 L 285.89 545.72 L 264.65 543.32 L 224.81 543.38 L 194.47 553.57 L 179.54 548.11 L 147.58 544.19 L 141.22 544.07 L 127.63 542.82 L 123.98 535.55 L 114.68 525.33 L 115.42 511.45 L 116.34 507.50 L 119.67 482.45 L 126.43 474.22 L 178.98 421.68 L 203.75 400.41 L 237.21 387.23 L 267.39 365.69 L 282.51 347.29 L 297.87 318.05 L 303.79 297.41 L 307.85 285.88 L 312.81 277.65 L 321.28 255.86 z M 299.71 326.12 L 300.29 357.30 L 311.68 396.58 L 313.02 409.98 L 312.34 416.91 L 310.39 422.86 L 307.03 437.29 L 293.47 478.56 L 284.25 523.99 L 282.54 541.59 L 264.65 539.59 L 224.28 539.68 L 194.53 549.61 L 180.83 544.60 L 147.66 540.45 L 130.04 539.29 L 127.06 533.42 L 118.50 523.97 L 119.15 511.97 L 119.99 508.34 L 123.25 483.99 L 129.18 476.76 L 181.52 424.43 L 205.71 403.67 L 238.58 390.72 L 269.96 368.40 L 285.40 349.67 L 301.39 319.32 L 306.28 302.29 z M 309.66 292.03 L 311.26 287.47 L 313.73 283.38 z M 322.40 265.22 L 318.77 272.64 L 321.95 264.46 z M 296.56 357.38 L 307.98 397.27 L 309.27 409.98 L 308.66 416.11 L 306.83 421.69 L 303.47 436.13 L 289.91 477.39 L 280.52 523.63 L 279.18 537.46 L 264.64 535.85 L 223.76 535.97 L 194.59 545.64 L 182.12 541.08 L 147.91 536.73 L 132.41 535.70 L 130.13 531.28 L 122.33 522.62 L 122.87 512.50 L 126.82 485.54 L 131.94 479.31 L 184.06 427.18 L 207.66 406.93 L 239.96 394.20 L 272.53 371.12 L 288.28 352.05 L 296.18 337.23 z M 292.86 357.96 L 304.29 397.93 L 305.50 409.98 L 304.98 415.32 L 303.27 420.53 L 299.91 434.96 L 286.35 476.23 L 276.80 523.27 L 275.82 533.33 L 264.62 532.11 L 222.73 532.38 L 194.67 541.68 L 182.60 537.37 L 148.16 533.00 L 134.76 532.11 L 133.18 529.12 L 126.15 521.28 L 126.61 512.69 L 130.37 487.13 L 134.69 481.85 L 186.60 429.93 L 209.62 410.19 L 241.33 397.69 L 275.09 373.84 L 291.17 354.43 L 292.71 351.71 z M 300.59 398.58 L 301.75 410.00 L 301.30 414.53 L 299.71 419.36 L 296.35 433.79 L 282.79 475.06 L 273.07 522.91 L 272.46 529.19 L 265.03 528.38 L 221.68 528.79 L 194.71 537.73 L 183.36 533.71 L 148.63 529.29 L 137.10 528.52 L 136.21 526.93 L 129.98 519.95 L 130.35 512.89 L 133.91 488.69 L 137.34 484.50 L 189.15 432.69 L 211.58 413.45 L 242.71 401.17 L 277.65 376.57 L 290.03 361.67 z M 296.90 399.24 L 297.99 410.00 L 297.62 413.74 L 296.15 418.19 L 292.79 432.63 L 279.24 473.89 L 269.11 525.06 L 265.43 524.66 L 220.62 525.20 L 194.77 533.78 L 184.62 530.18 L 148.88 525.57 L 139.37 524.93 L 133.79 518.62 L 134.09 513.08 L 137.46 490.27 L 140.10 487.03 L 191.69 435.44 L 213.54 416.71 L 244.09 404.66 L 280.21 379.30 L 288.39 369.49 z M 293.21 399.90 L 294.22 410.00 L 293.92 413.00 L 289.23 431.46 L 275.68 472.73 L 266.12 520.96 L 220.05 521.50 L 194.83 529.83 L 185.87 526.65 L 149.14 521.85 L 141.16 521.31 L 137.60 517.28 L 137.83 513.28 L 141.00 491.86 L 194.23 438.19 L 215.50 419.97 L 246.24 407.72 L 282.76 382.04 L 286.74 377.30 z M 289.51 400.56 L 290.45 410.00 L 290.23 412.39 L 285.67 430.29 L 272.12 471.56 L 263.04 517.25 L 218.99 517.91 L 194.91 525.88 L 187.13 523.12 L 149.39 518.12 L 142.96 517.69 L 141.43 515.97 L 144.51 493.61 L 196.67 441.03 L 217.48 423.20 L 248.39 410.79 L 285.05 384.99 z M 285.82 401.22 L 286.70 410.00 L 282.11 429.13 L 268.56 470.39 L 259.96 513.56 L 218.42 514.22 L 194.97 521.94 L 187.62 519.41 L 145.47 514.11 L 148.06 495.34 L 199.11 443.87 L 219.45 426.43 L 249.78 414.26 L 282.91 391.06 z M 282.12 401.87 L 282.91 409.76 L 278.55 427.96 L 265.00 469.23 L 256.87 509.87 L 217.85 510.52 L 195.00 518.00 L 188.83 515.88 L 149.71 510.88 L 151.60 497.08 L 201.55 446.72 L 221.44 429.66 L 251.18 417.73 L 280.76 397.13 z M 279.13 409.52 L 274.99 426.79 L 261.44 468.06 L 253.79 506.17 L 217.27 506.83 L 195.01 514.05 L 190.04 512.35 L 153.92 507.65 L 155.15 498.83 L 204.09 449.47 L 223.41 432.90 L 252.57 421.20 L 278.50 403.26 z M 271.43 425.63 L 257.88 466.89 L 250.73 502.49 L 216.68 503.13 L 195.03 510.12 L 191.26 508.82 L 158.16 504.44 L 158.68 500.58 L 206.63 452.22 L 225.40 436.13 L 253.96 424.67 L 275.14 410.15 z M 267.87 424.46 L 254.32 465.73 L 247.66 498.81 L 216.10 499.44 L 195.06 506.17 L 192.48 505.29 L 163.21 501.32 L 209.18 454.97 L 227.38 439.36 L 255.35 428.14 L 269.24 418.72 z M 250.76 464.56 L 244.59 495.13 L 215.52 495.75 L 195.09 502.24 L 171.17 498.62 L 211.72 457.72 L 229.37 442.59 L 256.74 431.61 L 262.92 427.53 z M 247.20 463.39 L 241.53 491.45 L 214.92 492.05 L 194.79 498.41 L 179.01 496.03 L 214.26 460.48 L 231.36 445.82 L 256.25 435.84 z M 243.64 462.23 L 238.45 487.77 L 214.32 488.36 L 194.49 494.58 L 186.86 493.43 L 216.80 463.23 L 233.33 449.05 L 250.19 442.30 z M 239.97 461.48 L 235.38 484.11 L 213.71 484.66 L 195.06 490.47 L 219.35 465.98 L 235.31 452.28 L 244.15 448.75 z M 236.41 460.31 L 232.31 480.44 L 213.09 480.97 L 208.29 482.43 L 221.78 468.82 L 238.09 455.20 z M 229.25 476.78 L 218.88 477.06 L 224.36 471.54 L 231.54 465.55 z"
 style="fill:#80FF9C; fill-opacity:0.25; fill-rule:evenodd; stroke:#003300; stroke-opacity:1.00; stroke-width:1.50;"/>

</svg>
